<?xml version="1.0" encoding="utf-8" standalone="no"?>
<!DOCTYPE svg PUBLIC "-//W3C//DTD SVG 1.1//EN"
  "http://www.w3.org/Graphics/SVG/1.1/DTD/svg11.dtd">
<svg xmlns:xlink="http://www.w3.org/1999/xlink" width="288pt" height="144pt" viewBox="0 0 288 144" xmlns="http://www.w3.org/2000/svg" version="1.1">
 <defs>
  <style type="text/css">*{stroke-linejoin: round; stroke-linecap: butt}</style>
 </defs>
 <g id="figure_1">
  <g id="patch_1">
   <path d="M 0 144 
L 288 144 
L 288 0 
L 0 0 
z
" style="fill: #ffffff"/>
  </g>
  <g id="axes_1">
   <g id="patch_2">
    <path d="M 0 144 
L 288 144 
L 288 0 
L 0 0 
z
" clip-path="url(#SVG_ID)" style="fill: #ffffff; stroke: #ffffff; stroke-linejoin: miter"/>
   </g>
   <g id="patch_3">
    <path d="M 36 54 
Q 36 90 36 90 
" clip-path="url(#SVG_ID)" style="fill: none; stroke: #000000; stroke-linejoin: miter"/>
   </g>
   <g id="patch_4">
    <path d="M 108 0 
Q 108 90 108 90 
" clip-path="url(#SVG_ID)" style="fill: none; stroke: #000000; stroke-linejoin: miter"/>
   </g>
   <g id="patch_5">
    <path d="M 180 0 
Q 180 90 180 90 
" clip-path="url(#SVG_ID)" style="fill: none; stroke: #000000; stroke-linejoin: miter"/>
   </g>
   <g id="patch_6">
    <path d="M 252 0 
Q 252 90 252 90 
" clip-path="url(#SVG_ID)" style="fill: none; stroke: #000000; stroke-linejoin: miter"/>
   </g>
   <g id="patch_7">
    <path d="M 72 126 
Q 72 144 72 144 
" clip-path="url(#SVG_ID)" style="fill: none; stroke: #000000; stroke-linejoin: miter"/>
   </g>
   <g id="patch_8">
    <path d="M 144 126 
Q 144 144 144 144 
" clip-path="url(#SVG_ID)" style="fill: none; stroke: #000000; stroke-linejoin: miter"/>
   </g>
   <g id="patch_9">
    <path d="M 216 126 
Q 216 144 216 144 
" clip-path="url(#SVG_ID)" style="fill: none; stroke: #000000; stroke-linejoin: miter"/>
   </g>
   <g id="patch_10">
    <path d="M 18 54 
L 18 18 
L 54 18 
L 54 54 
z
" clip-path="url(#SVG_ID)" style="fill: #ffffff; stroke: #000000; stroke-linejoin: miter"/>
   </g>
   <g id="patch_11">
    <path d="M 18 126 
L 18 90 
L 270 90 
L 270 126 
z
" clip-path="url(#SVG_ID)" style="fill: #ffffff; stroke: #000000; stroke-linejoin: miter"/>
   </g>
   <g id="text_1">
    <!-- sh -->
    <g transform="translate(57.6 67.27875) scale(0.08 -0.08)">
     <defs>
      <path id="DejaVuSans-73" d="M 2834 3397 
L 2834 2853 
Q 2591 2978 2328 3040 
Q 2066 3103 1784 3103 
Q 1356 3103 1142 2972 
Q 928 2841 928 2578 
Q 928 2378 1081 2264 
Q 1234 2150 1697 2047 
L 1894 2003 
Q 2506 1872 2764 1633 
Q 3022 1394 3022 966 
Q 3022 478 2636 193 
Q 2250 -91 1575 -91 
Q 1294 -91 989 -36 
Q 684 19 347 128 
L 347 722 
Q 666 556 975 473 
Q 1284 391 1588 391 
Q 1994 391 2212 530 
Q 2431 669 2431 922 
Q 2431 1156 2273 1281 
Q 2116 1406 1581 1522 
L 1381 1569 
Q 847 1681 609 1914 
Q 372 2147 372 2553 
Q 372 3047 722 3315 
Q 1072 3584 1716 3584 
Q 2034 3584 2315 3537 
Q 2597 3491 2834 3397 
z
" transform="scale(0.015625)"/>
      <path id="DejaVuSans-68" d="M 3513 2113 
L 3513 0 
L 2938 0 
L 2938 2094 
Q 2938 2591 2744 2837 
Q 2550 3084 2163 3084 
Q 1697 3084 1428 2787 
Q 1159 2491 1159 1978 
L 1159 0 
L 581 0 
L 581 4863 
L 1159 4863 
L 1159 2956 
Q 1366 3272 1645 3428 
Q 1925 3584 2291 3584 
Q 2894 3584 3203 3211 
Q 3513 2838 3513 2113 
z
" transform="scale(0.015625)"/>
     </defs>
     <use xlink:href="#DejaVuSans-73"/>
     <use xlink:href="#DejaVuSans-68" transform="translate(52.099609 0)"/>
    </g>
   </g>
   <g id="text_2">
    <!-- stdout -->
    <g transform="translate(129.6 13.27875) scale(0.08 -0.08)">
     <defs>
      <path id="DejaVuSans-74" d="M 1172 4494 
L 1172 3500 
L 2356 3500 
L 2356 3053 
L 1172 3053 
L 1172 1153 
Q 1172 725 1289 603 
Q 1406 481 1766 481 
L 2356 481 
L 2356 0 
L 1766 0 
Q 1100 0 847 248 
Q 594 497 594 1153 
L 594 3053 
L 172 3053 
L 172 3500 
L 594 3500 
L 594 4494 
L 1172 4494 
z
" transform="scale(0.015625)"/>
      <path id="DejaVuSans-64" d="M 2906 2969 
L 2906 4863 
L 3481 4863 
L 3481 0 
L 2906 0 
L 2906 525 
Q 2725 213 2448 61 
Q 2172 -91 1784 -91 
Q 1150 -91 751 415 
Q 353 922 353 1747 
Q 353 2572 751 3078 
Q 1150 3584 1784 3584 
Q 2172 3584 2448 3432 
Q 2725 3281 2906 2969 
z
M 947 1747 
Q 947 1113 1208 752 
Q 1469 391 1925 391 
Q 2381 391 2643 752 
Q 2906 1113 2906 1747 
Q 2906 2381 2643 2742 
Q 2381 3103 1925 3103 
Q 1469 3103 1208 2742 
Q 947 2381 947 1747 
z
" transform="scale(0.015625)"/>
      <path id="DejaVuSans-6f" d="M 1959 3097 
Q 1497 3097 1228 2736 
Q 959 2375 959 1747 
Q 959 1119 1226 758 
Q 1494 397 1959 397 
Q 2419 397 2687 759 
Q 2956 1122 2956 1747 
Q 2956 2369 2687 2733 
Q 2419 3097 1959 3097 
z
M 1959 3584 
Q 2709 3584 3137 3096 
Q 3566 2609 3566 1747 
Q 3566 888 3137 398 
Q 2709 -91 1959 -91 
Q 1206 -91 779 398 
Q 353 888 353 1747 
Q 353 2609 779 3096 
Q 1206 3584 1959 3584 
z
" transform="scale(0.015625)"/>
      <path id="DejaVuSans-75" d="M 544 1381 
L 544 3500 
L 1119 3500 
L 1119 1403 
Q 1119 906 1312 657 
Q 1506 409 1894 409 
Q 2359 409 2629 706 
Q 2900 1003 2900 1516 
L 2900 3500 
L 3475 3500 
L 3475 0 
L 2900 0 
L 2900 538 
Q 2691 219 2414 64 
Q 2138 -91 1772 -91 
Q 1169 -91 856 284 
Q 544 659 544 1381 
z
M 1991 3584 
L 1991 3584 
z
" transform="scale(0.015625)"/>
     </defs>
     <use xlink:href="#DejaVuSans-73"/>
     <use xlink:href="#DejaVuSans-74" transform="translate(52.099609 0)"/>
     <use xlink:href="#DejaVuSans-64" transform="translate(91.308594 0)"/>
     <use xlink:href="#DejaVuSans-6f" transform="translate(154.785156 0)"/>
     <use xlink:href="#DejaVuSans-75" transform="translate(215.966797 0)"/>
     <use xlink:href="#DejaVuSans-74" transform="translate(279.345703 0)"/>
    </g>
   </g>
   <g id="text_3">
    <!-- rc -->
    <g transform="translate(201.6 13.27875) scale(0.08 -0.08)">
     <defs>
      <path id="DejaVuSans-72" d="M 2631 2963 
Q 2534 3019 2420 3045 
Q 2306 3072 2169 3072 
Q 1681 3072 1420 2755 
Q 1159 2438 1159 1844 
L 1159 0 
L 581 0 
L 581 3500 
L 1159 3500 
L 1159 2956 
Q 1341 3275 1631 3429 
Q 1922 3584 2338 3584 
Q 2397 3584 2469 3576 
Q 2541 3569 2628 3553 
L 2631 2963 
z
" transform="scale(0.015625)"/>
      <path id="DejaVuSans-63" d="M 3122 3366 
L 3122 2828 
Q 2878 2963 2633 3030 
Q 2388 3097 2138 3097 
Q 1578 3097 1268 2742 
Q 959 2388 959 1747 
Q 959 1106 1268 751 
Q 1578 397 2138 397 
Q 2388 397 2633 464 
Q 2878 531 3122 666 
L 3122 134 
Q 2881 22 2623 -34 
Q 2366 -91 2075 -91 
Q 1284 -91 818 406 
Q 353 903 353 1747 
Q 353 2603 823 3093 
Q 1294 3584 2113 3584 
Q 2378 3584 2631 3529 
Q 2884 3475 3122 3366 
z
" transform="scale(0.015625)"/>
     </defs>
     <use xlink:href="#DejaVuSans-72"/>
     <use xlink:href="#DejaVuSans-63" transform="translate(38.863281 0)"/>
    </g>
   </g>
   <g id="text_4">
    <!-- stderr -->
    <g transform="translate(273.6 13.27875) scale(0.08 -0.08)">
     <defs>
      <path id="DejaVuSans-65" d="M 3597 1894 
L 3597 1613 
L 953 1613 
Q 991 1019 1311 708 
Q 1631 397 2203 397 
Q 2534 397 2845 478 
Q 3156 559 3463 722 
L 3463 178 
Q 3153 47 2828 -22 
Q 2503 -91 2169 -91 
Q 1331 -91 842 396 
Q 353 884 353 1716 
Q 353 2575 817 3079 
Q 1281 3584 2069 3584 
Q 2775 3584 3186 3129 
Q 3597 2675 3597 1894 
z
M 3022 2063 
Q 3016 2534 2758 2815 
Q 2500 3097 2075 3097 
Q 1594 3097 1305 2825 
Q 1016 2553 972 2059 
L 3022 2063 
z
" transform="scale(0.015625)"/>
     </defs>
     <use xlink:href="#DejaVuSans-73"/>
     <use xlink:href="#DejaVuSans-74" transform="translate(52.099609 0)"/>
     <use xlink:href="#DejaVuSans-64" transform="translate(91.308594 0)"/>
     <use xlink:href="#DejaVuSans-65" transform="translate(154.785156 0)"/>
     <use xlink:href="#DejaVuSans-72" transform="translate(216.308594 0)"/>
     <use xlink:href="#DejaVuSans-72" transform="translate(255.671875 0)"/>
    </g>
   </g>
   <g id="text_5">
    <!-- stdout -->
    <g transform="translate(93.6 139.27875) scale(0.08 -0.08)">
     <use xlink:href="#DejaVuSans-73"/>
     <use xlink:href="#DejaVuSans-74" transform="translate(52.099609 0)"/>
     <use xlink:href="#DejaVuSans-64" transform="translate(91.308594 0)"/>
     <use xlink:href="#DejaVuSans-6f" transform="translate(154.785156 0)"/>
     <use xlink:href="#DejaVuSans-75" transform="translate(215.966797 0)"/>
     <use xlink:href="#DejaVuSans-74" transform="translate(279.345703 0)"/>
    </g>
   </g>
   <g id="text_6">
    <!-- rc -->
    <g transform="translate(165.6 139.27875) scale(0.08 -0.08)">
     <use xlink:href="#DejaVuSans-72"/>
     <use xlink:href="#DejaVuSans-63" transform="translate(38.863281 0)"/>
    </g>
   </g>
   <g id="text_7">
    <!-- stderr -->
    <g transform="translate(237.6 139.27875) scale(0.08 -0.08)">
     <use xlink:href="#DejaVuSans-73"/>
     <use xlink:href="#DejaVuSans-74" transform="translate(52.099609 0)"/>
     <use xlink:href="#DejaVuSans-64" transform="translate(91.308594 0)"/>
     <use xlink:href="#DejaVuSans-65" transform="translate(154.785156 0)"/>
     <use xlink:href="#DejaVuSans-72" transform="translate(216.308594 0)"/>
     <use xlink:href="#DejaVuSans-72" transform="translate(255.671875 0)"/>
    </g>
   </g>
   <g id="text_8">
    <!-- ('echo', 'Hello', 'World', mytilus.comput.shell.Command("('echo', 'Foo')", discorun.wire.types.Ty(), discorun.comput.computer.ProgramTy(discorun.comput.computer.ProgramOb('sh'))), '!') -->
    <g transform="translate(-521.205938 39.31125) scale(0.12 -0.12)">
     <defs>
      <path id="DejaVuSans-28" d="M 1984 4856 
Q 1566 4138 1362 3434 
Q 1159 2731 1159 2009 
Q 1159 1288 1364 580 
Q 1569 -128 1984 -844 
L 1484 -844 
Q 1016 -109 783 600 
Q 550 1309 550 2009 
Q 550 2706 781 3412 
Q 1013 4119 1484 4856 
L 1984 4856 
z
" transform="scale(0.015625)"/>
      <path id="DejaVuSans-27" d="M 1147 4666 
L 1147 2931 
L 616 2931 
L 616 4666 
L 1147 4666 
z
" transform="scale(0.015625)"/>
      <path id="DejaVuSans-2c" d="M 750 794 
L 1409 794 
L 1409 256 
L 897 -744 
L 494 -744 
L 750 256 
L 750 794 
z
" transform="scale(0.015625)"/>
      <path id="DejaVuSans-20" transform="scale(0.015625)"/>
      <path id="DejaVuSans-48" d="M 628 4666 
L 1259 4666 
L 1259 2753 
L 3553 2753 
L 3553 4666 
L 4184 4666 
L 4184 0 
L 3553 0 
L 3553 2222 
L 1259 2222 
L 1259 0 
L 628 0 
L 628 4666 
z
" transform="scale(0.015625)"/>
      <path id="DejaVuSans-6c" d="M 603 4863 
L 1178 4863 
L 1178 0 
L 603 0 
L 603 4863 
z
" transform="scale(0.015625)"/>
      <path id="DejaVuSans-57" d="M 213 4666 
L 850 4666 
L 1831 722 
L 2809 4666 
L 3519 4666 
L 4500 722 
L 5478 4666 
L 6119 4666 
L 4947 0 
L 4153 0 
L 3169 4050 
L 2175 0 
L 1381 0 
L 213 4666 
z
" transform="scale(0.015625)"/>
      <path id="DejaVuSans-6d" d="M 3328 2828 
Q 3544 3216 3844 3400 
Q 4144 3584 4550 3584 
Q 5097 3584 5394 3201 
Q 5691 2819 5691 2113 
L 5691 0 
L 5113 0 
L 5113 2094 
Q 5113 2597 4934 2840 
Q 4756 3084 4391 3084 
Q 3944 3084 3684 2787 
Q 3425 2491 3425 1978 
L 3425 0 
L 2847 0 
L 2847 2094 
Q 2847 2600 2669 2842 
Q 2491 3084 2119 3084 
Q 1678 3084 1418 2786 
Q 1159 2488 1159 1978 
L 1159 0 
L 581 0 
L 581 3500 
L 1159 3500 
L 1159 2956 
Q 1356 3278 1631 3431 
Q 1906 3584 2284 3584 
Q 2666 3584 2933 3390 
Q 3200 3197 3328 2828 
z
" transform="scale(0.015625)"/>
      <path id="DejaVuSans-79" d="M 2059 -325 
Q 1816 -950 1584 -1140 
Q 1353 -1331 966 -1331 
L 506 -1331 
L 506 -850 
L 844 -850 
Q 1081 -850 1212 -737 
Q 1344 -625 1503 -206 
L 1606 56 
L 191 3500 
L 800 3500 
L 1894 763 
L 2988 3500 
L 3597 3500 
L 2059 -325 
z
" transform="scale(0.015625)"/>
      <path id="DejaVuSans-69" d="M 603 3500 
L 1178 3500 
L 1178 0 
L 603 0 
L 603 3500 
z
M 603 4863 
L 1178 4863 
L 1178 4134 
L 603 4134 
L 603 4863 
z
" transform="scale(0.015625)"/>
      <path id="DejaVuSans-2e" d="M 684 794 
L 1344 794 
L 1344 0 
L 684 0 
L 684 794 
z
" transform="scale(0.015625)"/>
      <path id="DejaVuSans-70" d="M 1159 525 
L 1159 -1331 
L 581 -1331 
L 581 3500 
L 1159 3500 
L 1159 2969 
Q 1341 3281 1617 3432 
Q 1894 3584 2278 3584 
Q 2916 3584 3314 3078 
Q 3713 2572 3713 1747 
Q 3713 922 3314 415 
Q 2916 -91 2278 -91 
Q 1894 -91 1617 61 
Q 1341 213 1159 525 
z
M 3116 1747 
Q 3116 2381 2855 2742 
Q 2594 3103 2138 3103 
Q 1681 3103 1420 2742 
Q 1159 2381 1159 1747 
Q 1159 1113 1420 752 
Q 1681 391 2138 391 
Q 2594 391 2855 752 
Q 3116 1113 3116 1747 
z
" transform="scale(0.015625)"/>
      <path id="DejaVuSans-43" d="M 4122 4306 
L 4122 3641 
Q 3803 3938 3442 4084 
Q 3081 4231 2675 4231 
Q 1875 4231 1450 3742 
Q 1025 3253 1025 2328 
Q 1025 1406 1450 917 
Q 1875 428 2675 428 
Q 3081 428 3442 575 
Q 3803 722 4122 1019 
L 4122 359 
Q 3791 134 3420 21 
Q 3050 -91 2638 -91 
Q 1578 -91 968 557 
Q 359 1206 359 2328 
Q 359 3453 968 4101 
Q 1578 4750 2638 4750 
Q 3056 4750 3426 4639 
Q 3797 4528 4122 4306 
z
" transform="scale(0.015625)"/>
      <path id="DejaVuSans-61" d="M 2194 1759 
Q 1497 1759 1228 1600 
Q 959 1441 959 1056 
Q 959 750 1161 570 
Q 1363 391 1709 391 
Q 2188 391 2477 730 
Q 2766 1069 2766 1631 
L 2766 1759 
L 2194 1759 
z
M 3341 1997 
L 3341 0 
L 2766 0 
L 2766 531 
Q 2569 213 2275 61 
Q 1981 -91 1556 -91 
Q 1019 -91 701 211 
Q 384 513 384 1019 
Q 384 1609 779 1909 
Q 1175 2209 1959 2209 
L 2766 2209 
L 2766 2266 
Q 2766 2663 2505 2880 
Q 2244 3097 1772 3097 
Q 1472 3097 1187 3025 
Q 903 2953 641 2809 
L 641 3341 
Q 956 3463 1253 3523 
Q 1550 3584 1831 3584 
Q 2591 3584 2966 3190 
Q 3341 2797 3341 1997 
z
" transform="scale(0.015625)"/>
      <path id="DejaVuSans-6e" d="M 3513 2113 
L 3513 0 
L 2938 0 
L 2938 2094 
Q 2938 2591 2744 2837 
Q 2550 3084 2163 3084 
Q 1697 3084 1428 2787 
Q 1159 2491 1159 1978 
L 1159 0 
L 581 0 
L 581 3500 
L 1159 3500 
L 1159 2956 
Q 1366 3272 1645 3428 
Q 1925 3584 2291 3584 
Q 2894 3584 3203 3211 
Q 3513 2838 3513 2113 
z
" transform="scale(0.015625)"/>
      <path id="DejaVuSans-22" d="M 1147 4666 
L 1147 2931 
L 616 2931 
L 616 4666 
L 1147 4666 
z
M 2328 4666 
L 2328 2931 
L 1797 2931 
L 1797 4666 
L 2328 4666 
z
" transform="scale(0.015625)"/>
      <path id="DejaVuSans-46" d="M 628 4666 
L 3309 4666 
L 3309 4134 
L 1259 4134 
L 1259 2759 
L 3109 2759 
L 3109 2228 
L 1259 2228 
L 1259 0 
L 628 0 
L 628 4666 
z
" transform="scale(0.015625)"/>
      <path id="DejaVuSans-29" d="M 513 4856 
L 1013 4856 
Q 1481 4119 1714 3412 
Q 1947 2706 1947 2009 
Q 1947 1309 1714 600 
Q 1481 -109 1013 -844 
L 513 -844 
Q 928 -128 1133 580 
Q 1338 1288 1338 2009 
Q 1338 2731 1133 3434 
Q 928 4138 513 4856 
z
" transform="scale(0.015625)"/>
      <path id="DejaVuSans-77" d="M 269 3500 
L 844 3500 
L 1563 769 
L 2278 3500 
L 2956 3500 
L 3675 769 
L 4391 3500 
L 4966 3500 
L 4050 0 
L 3372 0 
L 2619 2869 
L 1863 0 
L 1184 0 
L 269 3500 
z
" transform="scale(0.015625)"/>
      <path id="DejaVuSans-54" d="M -19 4666 
L 3928 4666 
L 3928 4134 
L 2272 4134 
L 2272 0 
L 1638 0 
L 1638 4134 
L -19 4134 
L -19 4666 
z
" transform="scale(0.015625)"/>
      <path id="DejaVuSans-50" d="M 1259 4147 
L 1259 2394 
L 2053 2394 
Q 2494 2394 2734 2622 
Q 2975 2850 2975 3272 
Q 2975 3691 2734 3919 
Q 2494 4147 2053 4147 
L 1259 4147 
z
M 628 4666 
L 2053 4666 
Q 2838 4666 3239 4311 
Q 3641 3956 3641 3272 
Q 3641 2581 3239 2228 
Q 2838 1875 2053 1875 
L 1259 1875 
L 1259 0 
L 628 0 
L 628 4666 
z
" transform="scale(0.015625)"/>
      <path id="DejaVuSans-67" d="M 2906 1791 
Q 2906 2416 2648 2759 
Q 2391 3103 1925 3103 
Q 1463 3103 1205 2759 
Q 947 2416 947 1791 
Q 947 1169 1205 825 
Q 1463 481 1925 481 
Q 2391 481 2648 825 
Q 2906 1169 2906 1791 
z
M 3481 434 
Q 3481 -459 3084 -895 
Q 2688 -1331 1869 -1331 
Q 1566 -1331 1297 -1286 
Q 1028 -1241 775 -1147 
L 775 -588 
Q 1028 -725 1275 -790 
Q 1522 -856 1778 -856 
Q 2344 -856 2625 -561 
Q 2906 -266 2906 331 
L 2906 616 
Q 2728 306 2450 153 
Q 2172 0 1784 0 
Q 1141 0 747 490 
Q 353 981 353 1791 
Q 353 2603 747 3093 
Q 1141 3584 1784 3584 
Q 2172 3584 2450 3431 
Q 2728 3278 2906 2969 
L 2906 3500 
L 3481 3500 
L 3481 434 
z
" transform="scale(0.015625)"/>
      <path id="DejaVuSans-4f" d="M 2522 4238 
Q 1834 4238 1429 3725 
Q 1025 3213 1025 2328 
Q 1025 1447 1429 934 
Q 1834 422 2522 422 
Q 3209 422 3611 934 
Q 4013 1447 4013 2328 
Q 4013 3213 3611 3725 
Q 3209 4238 2522 4238 
z
M 2522 4750 
Q 3503 4750 4090 4092 
Q 4678 3434 4678 2328 
Q 4678 1225 4090 567 
Q 3503 -91 2522 -91 
Q 1538 -91 948 565 
Q 359 1222 359 2328 
Q 359 3434 948 4092 
Q 1538 4750 2522 4750 
z
" transform="scale(0.015625)"/>
      <path id="DejaVuSans-62" d="M 3116 1747 
Q 3116 2381 2855 2742 
Q 2594 3103 2138 3103 
Q 1681 3103 1420 2742 
Q 1159 2381 1159 1747 
Q 1159 1113 1420 752 
Q 1681 391 2138 391 
Q 2594 391 2855 752 
Q 3116 1113 3116 1747 
z
M 1159 2969 
Q 1341 3281 1617 3432 
Q 1894 3584 2278 3584 
Q 2916 3584 3314 3078 
Q 3713 2572 3713 1747 
Q 3713 922 3314 415 
Q 2916 -91 2278 -91 
Q 1894 -91 1617 61 
Q 1341 213 1159 525 
L 1159 0 
L 581 0 
L 581 4863 
L 1159 4863 
L 1159 2969 
z
" transform="scale(0.015625)"/>
      <path id="DejaVuSans-21" d="M 966 794 
L 1600 794 
L 1600 0 
L 966 0 
L 966 794 
z
M 966 4666 
L 1600 4666 
L 1600 2619 
L 1538 1503 
L 1031 1503 
L 966 2619 
L 966 4666 
z
" transform="scale(0.015625)"/>
     </defs>
     <use xlink:href="#DejaVuSans-28"/>
     <use xlink:href="#DejaVuSans-27" transform="translate(39.013672 0)"/>
     <use xlink:href="#DejaVuSans-65" transform="translate(66.503906 0)"/>
     <use xlink:href="#DejaVuSans-63" transform="translate(128.027344 0)"/>
     <use xlink:href="#DejaVuSans-68" transform="translate(183.007812 0)"/>
     <use xlink:href="#DejaVuSans-6f" transform="translate(246.386719 0)"/>
     <use xlink:href="#DejaVuSans-27" transform="translate(307.568359 0)"/>
     <use xlink:href="#DejaVuSans-2c" transform="translate(335.058594 0)"/>
     <use xlink:href="#DejaVuSans-20" transform="translate(366.845703 0)"/>
     <use xlink:href="#DejaVuSans-27" transform="translate(398.632812 0)"/>
     <use xlink:href="#DejaVuSans-48" transform="translate(426.123047 0)"/>
     <use xlink:href="#DejaVuSans-65" transform="translate(501.318359 0)"/>
     <use xlink:href="#DejaVuSans-6c" transform="translate(562.841797 0)"/>
     <use xlink:href="#DejaVuSans-6c" transform="translate(590.625 0)"/>
     <use xlink:href="#DejaVuSans-6f" transform="translate(618.408203 0)"/>
     <use xlink:href="#DejaVuSans-27" transform="translate(679.589844 0)"/>
     <use xlink:href="#DejaVuSans-2c" transform="translate(707.080078 0)"/>
     <use xlink:href="#DejaVuSans-20" transform="translate(738.867188 0)"/>
     <use xlink:href="#DejaVuSans-27" transform="translate(770.654297 0)"/>
     <use xlink:href="#DejaVuSans-57" transform="translate(798.144531 0)"/>
     <use xlink:href="#DejaVuSans-6f" transform="translate(891.146484 0)"/>
     <use xlink:href="#DejaVuSans-72" transform="translate(952.328125 0)"/>
     <use xlink:href="#DejaVuSans-6c" transform="translate(993.441406 0)"/>
     <use xlink:href="#DejaVuSans-64" transform="translate(1021.224609 0)"/>
     <use xlink:href="#DejaVuSans-27" transform="translate(1084.701172 0)"/>
     <use xlink:href="#DejaVuSans-2c" transform="translate(1112.191406 0)"/>
     <use xlink:href="#DejaVuSans-20" transform="translate(1143.978516 0)"/>
     <use xlink:href="#DejaVuSans-6d" transform="translate(1175.765625 0)"/>
     <use xlink:href="#DejaVuSans-79" transform="translate(1273.177734 0)"/>
     <use xlink:href="#DejaVuSans-74" transform="translate(1332.357422 0)"/>
     <use xlink:href="#DejaVuSans-69" transform="translate(1371.566406 0)"/>
     <use xlink:href="#DejaVuSans-6c" transform="translate(1399.349609 0)"/>
     <use xlink:href="#DejaVuSans-75" transform="translate(1427.132812 0)"/>
     <use xlink:href="#DejaVuSans-73" transform="translate(1490.511719 0)"/>
     <use xlink:href="#DejaVuSans-2e" transform="translate(1542.611328 0)"/>
     <use xlink:href="#DejaVuSans-63" transform="translate(1574.398438 0)"/>
     <use xlink:href="#DejaVuSans-6f" transform="translate(1629.378906 0)"/>
     <use xlink:href="#DejaVuSans-6d" transform="translate(1690.560547 0)"/>
     <use xlink:href="#DejaVuSans-70" transform="translate(1787.972656 0)"/>
     <use xlink:href="#DejaVuSans-75" transform="translate(1851.449219 0)"/>
     <use xlink:href="#DejaVuSans-74" transform="translate(1914.828125 0)"/>
     <use xlink:href="#DejaVuSans-2e" transform="translate(1954.037109 0)"/>
     <use xlink:href="#DejaVuSans-73" transform="translate(1985.824219 0)"/>
     <use xlink:href="#DejaVuSans-68" transform="translate(2037.923828 0)"/>
     <use xlink:href="#DejaVuSans-65" transform="translate(2101.302734 0)"/>
     <use xlink:href="#DejaVuSans-6c" transform="translate(2162.826172 0)"/>
     <use xlink:href="#DejaVuSans-6c" transform="translate(2190.609375 0)"/>
     <use xlink:href="#DejaVuSans-2e" transform="translate(2218.392578 0)"/>
     <use xlink:href="#DejaVuSans-43" transform="translate(2250.179688 0)"/>
     <use xlink:href="#DejaVuSans-6f" transform="translate(2320.003906 0)"/>
     <use xlink:href="#DejaVuSans-6d" transform="translate(2381.185547 0)"/>
     <use xlink:href="#DejaVuSans-6d" transform="translate(2478.597656 0)"/>
     <use xlink:href="#DejaVuSans-61" transform="translate(2576.009766 0)"/>
     <use xlink:href="#DejaVuSans-6e" transform="translate(2637.289062 0)"/>
     <use xlink:href="#DejaVuSans-64" transform="translate(2700.667969 0)"/>
     <use xlink:href="#DejaVuSans-28" transform="translate(2764.144531 0)"/>
     <use xlink:href="#DejaVuSans-22" transform="translate(2803.158203 0)"/>
     <use xlink:href="#DejaVuSans-28" transform="translate(2849.154297 0)"/>
     <use xlink:href="#DejaVuSans-27" transform="translate(2888.167969 0)"/>
     <use xlink:href="#DejaVuSans-65" transform="translate(2915.658203 0)"/>
     <use xlink:href="#DejaVuSans-63" transform="translate(2977.181641 0)"/>
     <use xlink:href="#DejaVuSans-68" transform="translate(3032.162109 0)"/>
     <use xlink:href="#DejaVuSans-6f" transform="translate(3095.541016 0)"/>
     <use xlink:href="#DejaVuSans-27" transform="translate(3156.722656 0)"/>
     <use xlink:href="#DejaVuSans-2c" transform="translate(3184.212891 0)"/>
     <use xlink:href="#DejaVuSans-20" transform="translate(3216 0)"/>
     <use xlink:href="#DejaVuSans-27" transform="translate(3247.787109 0)"/>
     <use xlink:href="#DejaVuSans-46" transform="translate(3275.277344 0)"/>
     <use xlink:href="#DejaVuSans-6f" transform="translate(3329.171875 0)"/>
     <use xlink:href="#DejaVuSans-6f" transform="translate(3390.353516 0)"/>
     <use xlink:href="#DejaVuSans-27" transform="translate(3451.535156 0)"/>
     <use xlink:href="#DejaVuSans-29" transform="translate(3479.025391 0)"/>
     <use xlink:href="#DejaVuSans-22" transform="translate(3518.039062 0)"/>
     <use xlink:href="#DejaVuSans-2c" transform="translate(3564.035156 0)"/>
     <use xlink:href="#DejaVuSans-20" transform="translate(3595.822266 0)"/>
     <use xlink:href="#DejaVuSans-64" transform="translate(3627.609375 0)"/>
     <use xlink:href="#DejaVuSans-69" transform="translate(3691.085938 0)"/>
     <use xlink:href="#DejaVuSans-73" transform="translate(3718.869141 0)"/>
     <use xlink:href="#DejaVuSans-63" transform="translate(3770.96875 0)"/>
     <use xlink:href="#DejaVuSans-6f" transform="translate(3825.949219 0)"/>
     <use xlink:href="#DejaVuSans-72" transform="translate(3887.130859 0)"/>
     <use xlink:href="#DejaVuSans-75" transform="translate(3928.244141 0)"/>
     <use xlink:href="#DejaVuSans-6e" transform="translate(3991.623047 0)"/>
     <use xlink:href="#DejaVuSans-2e" transform="translate(4055.001953 0)"/>
     <use xlink:href="#DejaVuSans-77" transform="translate(4086.789062 0)"/>
     <use xlink:href="#DejaVuSans-69" transform="translate(4168.576172 0)"/>
     <use xlink:href="#DejaVuSans-72" transform="translate(4196.359375 0)"/>
     <use xlink:href="#DejaVuSans-65" transform="translate(4235.222656 0)"/>
     <use xlink:href="#DejaVuSans-2e" transform="translate(4296.746094 0)"/>
     <use xlink:href="#DejaVuSans-74" transform="translate(4328.533203 0)"/>
     <use xlink:href="#DejaVuSans-79" transform="translate(4367.742188 0)"/>
     <use xlink:href="#DejaVuSans-70" transform="translate(4426.921875 0)"/>
     <use xlink:href="#DejaVuSans-65" transform="translate(4490.398438 0)"/>
     <use xlink:href="#DejaVuSans-73" transform="translate(4551.921875 0)"/>
     <use xlink:href="#DejaVuSans-2e" transform="translate(4604.021484 0)"/>
     <use xlink:href="#DejaVuSans-54" transform="translate(4635.808594 0)"/>
     <use xlink:href="#DejaVuSans-79" transform="translate(4681.267578 0)"/>
     <use xlink:href="#DejaVuSans-28" transform="translate(4740.447266 0)"/>
     <use xlink:href="#DejaVuSans-29" transform="translate(4779.460938 0)"/>
     <use xlink:href="#DejaVuSans-2c" transform="translate(4818.474609 0)"/>
     <use xlink:href="#DejaVuSans-20" transform="translate(4850.261719 0)"/>
     <use xlink:href="#DejaVuSans-64" transform="translate(4882.048828 0)"/>
     <use xlink:href="#DejaVuSans-69" transform="translate(4945.525391 0)"/>
     <use xlink:href="#DejaVuSans-73" transform="translate(4973.308594 0)"/>
     <use xlink:href="#DejaVuSans-63" transform="translate(5025.408203 0)"/>
     <use xlink:href="#DejaVuSans-6f" transform="translate(5080.388672 0)"/>
     <use xlink:href="#DejaVuSans-72" transform="translate(5141.570312 0)"/>
     <use xlink:href="#DejaVuSans-75" transform="translate(5182.683594 0)"/>
     <use xlink:href="#DejaVuSans-6e" transform="translate(5246.0625 0)"/>
     <use xlink:href="#DejaVuSans-2e" transform="translate(5309.441406 0)"/>
     <use xlink:href="#DejaVuSans-63" transform="translate(5341.228516 0)"/>
     <use xlink:href="#DejaVuSans-6f" transform="translate(5396.208984 0)"/>
     <use xlink:href="#DejaVuSans-6d" transform="translate(5457.390625 0)"/>
     <use xlink:href="#DejaVuSans-70" transform="translate(5554.802734 0)"/>
     <use xlink:href="#DejaVuSans-75" transform="translate(5618.279297 0)"/>
     <use xlink:href="#DejaVuSans-74" transform="translate(5681.658203 0)"/>
     <use xlink:href="#DejaVuSans-2e" transform="translate(5720.867188 0)"/>
     <use xlink:href="#DejaVuSans-63" transform="translate(5752.654297 0)"/>
     <use xlink:href="#DejaVuSans-6f" transform="translate(5807.634766 0)"/>
     <use xlink:href="#DejaVuSans-6d" transform="translate(5868.816406 0)"/>
     <use xlink:href="#DejaVuSans-70" transform="translate(5966.228516 0)"/>
     <use xlink:href="#DejaVuSans-75" transform="translate(6029.705078 0)"/>
     <use xlink:href="#DejaVuSans-74" transform="translate(6093.083984 0)"/>
     <use xlink:href="#DejaVuSans-65" transform="translate(6132.292969 0)"/>
     <use xlink:href="#DejaVuSans-72" transform="translate(6193.816406 0)"/>
     <use xlink:href="#DejaVuSans-2e" transform="translate(6225.804688 0)"/>
     <use xlink:href="#DejaVuSans-50" transform="translate(6257.591797 0)"/>
     <use xlink:href="#DejaVuSans-72" transform="translate(6316.144531 0)"/>
     <use xlink:href="#DejaVuSans-6f" transform="translate(6355.007812 0)"/>
     <use xlink:href="#DejaVuSans-67" transform="translate(6416.189453 0)"/>
     <use xlink:href="#DejaVuSans-72" transform="translate(6479.666016 0)"/>
     <use xlink:href="#DejaVuSans-61" transform="translate(6520.779297 0)"/>
     <use xlink:href="#DejaVuSans-6d" transform="translate(6582.058594 0)"/>
     <use xlink:href="#DejaVuSans-54" transform="translate(6679.470703 0)"/>
     <use xlink:href="#DejaVuSans-79" transform="translate(6724.929688 0)"/>
     <use xlink:href="#DejaVuSans-28" transform="translate(6784.109375 0)"/>
     <use xlink:href="#DejaVuSans-64" transform="translate(6823.123047 0)"/>
     <use xlink:href="#DejaVuSans-69" transform="translate(6886.599609 0)"/>
     <use xlink:href="#DejaVuSans-73" transform="translate(6914.382812 0)"/>
     <use xlink:href="#DejaVuSans-63" transform="translate(6966.482422 0)"/>
     <use xlink:href="#DejaVuSans-6f" transform="translate(7021.462891 0)"/>
     <use xlink:href="#DejaVuSans-72" transform="translate(7082.644531 0)"/>
     <use xlink:href="#DejaVuSans-75" transform="translate(7123.757812 0)"/>
     <use xlink:href="#DejaVuSans-6e" transform="translate(7187.136719 0)"/>
     <use xlink:href="#DejaVuSans-2e" transform="translate(7250.515625 0)"/>
     <use xlink:href="#DejaVuSans-63" transform="translate(7282.302734 0)"/>
     <use xlink:href="#DejaVuSans-6f" transform="translate(7337.283203 0)"/>
     <use xlink:href="#DejaVuSans-6d" transform="translate(7398.464844 0)"/>
     <use xlink:href="#DejaVuSans-70" transform="translate(7495.876953 0)"/>
     <use xlink:href="#DejaVuSans-75" transform="translate(7559.353516 0)"/>
     <use xlink:href="#DejaVuSans-74" transform="translate(7622.732422 0)"/>
     <use xlink:href="#DejaVuSans-2e" transform="translate(7661.941406 0)"/>
     <use xlink:href="#DejaVuSans-63" transform="translate(7693.728516 0)"/>
     <use xlink:href="#DejaVuSans-6f" transform="translate(7748.708984 0)"/>
     <use xlink:href="#DejaVuSans-6d" transform="translate(7809.890625 0)"/>
     <use xlink:href="#DejaVuSans-70" transform="translate(7907.302734 0)"/>
     <use xlink:href="#DejaVuSans-75" transform="translate(7970.779297 0)"/>
     <use xlink:href="#DejaVuSans-74" transform="translate(8034.158203 0)"/>
     <use xlink:href="#DejaVuSans-65" transform="translate(8073.367188 0)"/>
     <use xlink:href="#DejaVuSans-72" transform="translate(8134.890625 0)"/>
     <use xlink:href="#DejaVuSans-2e" transform="translate(8166.878906 0)"/>
     <use xlink:href="#DejaVuSans-50" transform="translate(8198.666016 0)"/>
     <use xlink:href="#DejaVuSans-72" transform="translate(8257.21875 0)"/>
     <use xlink:href="#DejaVuSans-6f" transform="translate(8296.082031 0)"/>
     <use xlink:href="#DejaVuSans-67" transform="translate(8357.263672 0)"/>
     <use xlink:href="#DejaVuSans-72" transform="translate(8420.740234 0)"/>
     <use xlink:href="#DejaVuSans-61" transform="translate(8461.853516 0)"/>
     <use xlink:href="#DejaVuSans-6d" transform="translate(8523.132812 0)"/>
     <use xlink:href="#DejaVuSans-4f" transform="translate(8620.544922 0)"/>
     <use xlink:href="#DejaVuSans-62" transform="translate(8699.255859 0)"/>
     <use xlink:href="#DejaVuSans-28" transform="translate(8762.732422 0)"/>
     <use xlink:href="#DejaVuSans-27" transform="translate(8801.746094 0)"/>
     <use xlink:href="#DejaVuSans-73" transform="translate(8829.236328 0)"/>
     <use xlink:href="#DejaVuSans-68" transform="translate(8881.335938 0)"/>
     <use xlink:href="#DejaVuSans-27" transform="translate(8944.714844 0)"/>
     <use xlink:href="#DejaVuSans-29" transform="translate(8972.205078 0)"/>
     <use xlink:href="#DejaVuSans-29" transform="translate(9011.21875 0)"/>
     <use xlink:href="#DejaVuSans-29" transform="translate(9050.232422 0)"/>
     <use xlink:href="#DejaVuSans-2c" transform="translate(9089.246094 0)"/>
     <use xlink:href="#DejaVuSans-20" transform="translate(9121.033203 0)"/>
     <use xlink:href="#DejaVuSans-27" transform="translate(9152.820312 0)"/>
     <use xlink:href="#DejaVuSans-21" transform="translate(9180.310547 0)"/>
     <use xlink:href="#DejaVuSans-27" transform="translate(9220.398438 0)"/>
     <use xlink:href="#DejaVuSans-29" transform="translate(9247.888672 0)"/>
    </g>
   </g>
   <g id="text_9">
    <!-- out({}) -->
    <g transform="translate(121.857188 111.31125) scale(0.12 -0.12)">
     <defs>
      <path id="DejaVuSans-7b" d="M 3272 -594 
L 3272 -1044 
L 3078 -1044 
Q 2300 -1044 2036 -812 
Q 1772 -581 1772 109 
L 1772 856 
Q 1772 1328 1603 1509 
Q 1434 1691 991 1691 
L 800 1691 
L 800 2138 
L 991 2138 
Q 1438 2138 1605 2317 
Q 1772 2497 1772 2963 
L 1772 3713 
Q 1772 4403 2036 4633 
Q 2300 4863 3078 4863 
L 3272 4863 
L 3272 4416 
L 3059 4416 
Q 2619 4416 2484 4278 
Q 2350 4141 2350 3700 
L 2350 2925 
Q 2350 2434 2208 2212 
Q 2066 1991 1722 1913 
Q 2069 1828 2209 1606 
Q 2350 1384 2350 897 
L 2350 122 
Q 2350 -319 2484 -456 
Q 2619 -594 3059 -594 
L 3272 -594 
z
" transform="scale(0.015625)"/>
      <path id="DejaVuSans-7d" d="M 800 -594 
L 1019 -594 
Q 1456 -594 1589 -459 
Q 1722 -325 1722 122 
L 1722 897 
Q 1722 1384 1862 1606 
Q 2003 1828 2350 1913 
Q 2003 1991 1862 2212 
Q 1722 2434 1722 2925 
L 1722 3700 
Q 1722 4144 1589 4280 
Q 1456 4416 1019 4416 
L 800 4416 
L 800 4863 
L 997 4863 
Q 1775 4863 2036 4633 
Q 2297 4403 2297 3713 
L 2297 2963 
Q 2297 2497 2465 2317 
Q 2634 2138 3078 2138 
L 3272 2138 
L 3272 1691 
L 3078 1691 
Q 2634 1691 2465 1509 
Q 2297 1328 2297 856 
L 2297 109 
Q 2297 -581 2036 -812 
Q 1775 -1044 997 -1044 
L 800 -1044 
L 800 -594 
z
" transform="scale(0.015625)"/>
     </defs>
     <use xlink:href="#DejaVuSans-6f"/>
     <use xlink:href="#DejaVuSans-75" transform="translate(61.181641 0)"/>
     <use xlink:href="#DejaVuSans-74" transform="translate(124.560547 0)"/>
     <use xlink:href="#DejaVuSans-28" transform="translate(163.769531 0)"/>
     <use xlink:href="#DejaVuSans-7b" transform="translate(202.783203 0)"/>
     <use xlink:href="#DejaVuSans-7d" transform="translate(266.40625 0)"/>
     <use xlink:href="#DejaVuSans-29" transform="translate(330.029297 0)"/>
    </g>
   </g>
  </g>
 </g>
 <defs>
  <clipPath id="SVG_ID">
   <rect x="0" y="0" width="288" height="144"/>
  </clipPath>
 </defs>
</svg>