<?xml version="1.0" encoding="utf-8" standalone="no"?>
<!DOCTYPE svg PUBLIC "-//W3C//DTD SVG 1.1//EN"
  "http://www.w3.org/Graphics/SVG/1.1/DTD/svg11.dtd">
<svg xmlns:xlink="http://www.w3.org/1999/xlink" width="360pt" height="1008pt" viewBox="0 0 360 1008" xmlns="http://www.w3.org/2000/svg" version="1.1">
 <metadata>
  <rdf:RDF xmlns:dc="http://purl.org/dc/elements/1.1/" xmlns:cc="http://creativecommons.org/ns#" xmlns:rdf="http://www.w3.org/1999/02/22-rdf-syntax-ns#">
   <cc:Work>
    <dc:type rdf:resource="http://purl.org/dc/dcmitype/StillImage"/>
    <dc:date>2026-03-15T19:48:36.878537</dc:date>
    <dc:format>image/svg+xml</dc:format>
    <dc:creator>
     <cc:Agent>
      <dc:title>Matplotlib v3.10.8, https://matplotlib.org/</dc:title>
     </cc:Agent>
    </dc:creator>
   </cc:Work>
  </rdf:RDF>
 </metadata>
 <defs>
  <style type="text/css">*{stroke-linejoin: round; stroke-linecap: butt}</style>
 </defs>
 <g id="figure_1">
  <g id="patch_1">
   <path d="M 0 1008 
L 360 1008 
L 360 0 
L 0 0 
z
" style="fill: #ffffff"/>
  </g>
  <g id="axes_1">
   <g id="patch_2">
    <path d="M 0 1008 
L 360 1008 
L 360 0 
L 0 0 
z
" clip-path="url(#p8c35684184)" style="fill: #ffffff; stroke: #ffffff; stroke-linejoin: miter"/>
   </g>
   <g id="patch_3">
    <path d="M 108 54 
Q 108 90 108 90 
" clip-path="url(#p8c35684184)" style="fill: none; stroke: #000000; stroke-linejoin: miter"/>
   </g>
   <g id="patch_4">
    <path d="M 288 0 
Q 288 90 288 90 
" clip-path="url(#p8c35684184)" style="fill: none; stroke: #000000; stroke-linejoin: miter"/>
   </g>
   <g id="patch_5">
    <path d="M 144 126 
Q 144 162 144 162 
" clip-path="url(#p8c35684184)" style="fill: none; stroke: #000000; stroke-linejoin: miter"/>
   </g>
   <g id="patch_6">
    <path d="M 144 180 
Q 108 180 108 198 
" clip-path="url(#p8c35684184)" style="fill: none; stroke: #000000; stroke-linejoin: miter"/>
   </g>
   <g id="patch_7">
    <path d="M 144 180 
Q 288 180 288 198 
" clip-path="url(#p8c35684184)" style="fill: none; stroke: #000000; stroke-linejoin: miter"/>
   </g>
   <g id="patch_8">
    <path d="M 144 162 
Q 144 180 144 180 
" clip-path="url(#p8c35684184)" style="fill: none; stroke: #000000; stroke-linejoin: miter"/>
   </g>
   <g id="patch_9">
    <path d="M 108 198 
Q 108 378 108 378 
" clip-path="url(#p8c35684184)" style="fill: none; stroke: #000000; stroke-linejoin: miter"/>
   </g>
   <g id="patch_10">
    <path d="M 288 198 
Q 288 234 288 234 
" clip-path="url(#p8c35684184)" style="fill: none; stroke: #000000; stroke-linejoin: miter"/>
   </g>
   <g id="patch_11">
    <path d="M 288 252 
Q 252 252 252 270 
" clip-path="url(#p8c35684184)" style="fill: none; stroke: #000000; stroke-linejoin: miter"/>
   </g>
   <g id="patch_12">
    <path d="M 288 252 
Q 324 252 324 270 
" clip-path="url(#p8c35684184)" style="fill: none; stroke: #000000; stroke-linejoin: miter"/>
   </g>
   <g id="patch_13">
    <path d="M 288 234 
Q 288 252 288 252 
" clip-path="url(#p8c35684184)" style="fill: none; stroke: #000000; stroke-linejoin: miter"/>
   </g>
   <g id="patch_14">
    <path d="M 252 270 
Q 252 522 252 522 
" clip-path="url(#p8c35684184)" style="fill: none; stroke: #000000; stroke-linejoin: miter"/>
   </g>
   <g id="patch_15">
    <path d="M 324 270 
Q 324 810 324 810 
" clip-path="url(#p8c35684184)" style="fill: none; stroke: #000000; stroke-linejoin: miter"/>
   </g>
   <g id="patch_16">
    <path d="M 36 342 
Q 36 378 36 378 
" clip-path="url(#p8c35684184)" style="fill: none; stroke: #000000; stroke-linejoin: miter"/>
   </g>
   <g id="patch_17">
    <path d="M 72 414 
Q 72 882 72 882 
" clip-path="url(#p8c35684184)" style="fill: none; stroke: #000000; stroke-linejoin: miter"/>
   </g>
   <g id="patch_18">
    <path d="M 144 486 
Q 144 522 144 522 
" clip-path="url(#p8c35684184)" style="fill: none; stroke: #000000; stroke-linejoin: miter"/>
   </g>
   <g id="patch_19">
    <path d="M 216 558 
Q 216 666 216 666 
" clip-path="url(#p8c35684184)" style="fill: none; stroke: #000000; stroke-linejoin: miter"/>
   </g>
   <g id="patch_20">
    <path d="M 144 630 
Q 144 666 144 666 
" clip-path="url(#p8c35684184)" style="fill: none; stroke: #000000; stroke-linejoin: miter"/>
   </g>
   <g id="patch_21">
    <path d="M 180 702 
Q 180 882 180 882 
" clip-path="url(#p8c35684184)" style="fill: none; stroke: #000000; stroke-linejoin: miter"/>
   </g>
   <g id="patch_22">
    <path d="M 252 774 
Q 252 810 252 810 
" clip-path="url(#p8c35684184)" style="fill: none; stroke: #000000; stroke-linejoin: miter"/>
   </g>
   <g id="patch_23">
    <path d="M 288 846 
Q 288 954 288 954 
" clip-path="url(#p8c35684184)" style="fill: none; stroke: #000000; stroke-linejoin: miter"/>
   </g>
   <g id="patch_24">
    <path d="M 126 918 
Q 126 954 126 954 
" clip-path="url(#p8c35684184)" style="fill: none; stroke: #000000; stroke-linejoin: miter"/>
   </g>
   <g id="patch_25">
    <path d="M 207 990 
Q 207 1008 207 1008 
" clip-path="url(#p8c35684184)" style="fill: none; stroke: #000000; stroke-linejoin: miter"/>
   </g>
   <g id="patch_26">
    <path d="M 90 54 
L 90 18 
L 126 18 
L 126 54 
z
" clip-path="url(#p8c35684184)" style="fill: #ffffff; stroke: #000000; stroke-linejoin: miter"/>
   </g>
   <g id="patch_27">
    <path d="M 90 126 
L 90 90 
L 306 90 
L 306 126 
z
" clip-path="url(#p8c35684184)" style="fill: #ffffff; stroke: #000000; stroke-linejoin: miter"/>
   </g>
   <g id="patch_28">
    <path d="M 18 342 
L 18 306 
L 54 306 
L 54 342 
z
" clip-path="url(#p8c35684184)" style="fill: #ffffff; stroke: #000000; stroke-linejoin: miter"/>
   </g>
   <g id="patch_29">
    <path d="M 18 414 
L 18 378 
L 126 378 
L 126 414 
z
" clip-path="url(#p8c35684184)" style="fill: #ffffff; stroke: #000000; stroke-linejoin: miter"/>
   </g>
   <g id="patch_30">
    <path d="M 126 486 
L 126 450 
L 162 450 
L 162 486 
z
" clip-path="url(#p8c35684184)" style="fill: #ffffff; stroke: #000000; stroke-linejoin: miter"/>
   </g>
   <g id="patch_31">
    <path d="M 126 558 
L 126 522 
L 270 522 
L 270 558 
z
" clip-path="url(#p8c35684184)" style="fill: #ffffff; stroke: #000000; stroke-linejoin: miter"/>
   </g>
   <g id="patch_32">
    <path d="M 126 630 
L 126 594 
L 162 594 
L 162 630 
z
" clip-path="url(#p8c35684184)" style="fill: #ffffff; stroke: #000000; stroke-linejoin: miter"/>
   </g>
   <g id="patch_33">
    <path d="M 126 702 
L 126 666 
L 234 666 
L 234 702 
z
" clip-path="url(#p8c35684184)" style="fill: #ffffff; stroke: #000000; stroke-linejoin: miter"/>
   </g>
   <g id="patch_34">
    <path d="M 234 774 
L 234 738 
L 270 738 
L 270 774 
z
" clip-path="url(#p8c35684184)" style="fill: #ffffff; stroke: #000000; stroke-linejoin: miter"/>
   </g>
   <g id="patch_35">
    <path d="M 234 846 
L 234 810 
L 342 810 
L 342 846 
z
" clip-path="url(#p8c35684184)" style="fill: #ffffff; stroke: #000000; stroke-linejoin: miter"/>
   </g>
   <g id="patch_36">
    <path d="M 54 918 
L 54 882 
L 198 882 
L 198 918 
z
" clip-path="url(#p8c35684184)" style="fill: #ffffff; stroke: #000000; stroke-linejoin: miter"/>
   </g>
   <g id="patch_37">
    <path d="M 108 990 
L 108 954 
L 306 954 
L 306 990 
z
" clip-path="url(#p8c35684184)" style="fill: #ffffff; stroke: #000000; stroke-linejoin: miter"/>
   </g>
   <g id="PathCollection_1">
    <defs>
     <path id="C0_0_770fba90bb" d="M 0 4.47493 
C 1.186765 4.47493 2.325084 4.003423 3.164253 3.164253 
C 4.003423 2.325084 4.47493 1.186765 4.47493 -0 
C 4.47493 -1.186765 4.003423 -2.325084 3.164253 -3.164253 
C 2.325084 -4.003423 1.186765 -4.47493 0 -4.47493 
C -1.186765 -4.47493 -2.325084 -4.003423 -3.164253 -3.164253 
C -4.003423 -2.325084 -4.47493 -1.186765 -4.47493 0 
C -4.47493 1.186765 -4.003423 2.325084 -3.164253 3.164253 
C -2.325084 4.003423 -1.186765 4.47493 0 4.47493 
z
"/>
    </defs>
    <g clip-path="url(#p8c35684184)">
     <use xlink:href="#C0_0_770fba90bb" x="144" y="180" style="stroke: #000000"/>
    </g>
    <g clip-path="url(#p8c35684184)">
     <use xlink:href="#C0_0_770fba90bb" x="288" y="252" style="stroke: #000000"/>
    </g>
   </g>
   <g id="text_1">
    <!-- sh -->
    <g transform="translate(112.5 66.098438) scale(0.1 -0.1)">
     <defs>
      <path id="DejaVuSans-73" d="M 2834 3397 
L 2834 2853 
Q 2591 2978 2328 3040 
Q 2066 3103 1784 3103 
Q 1356 3103 1142 2972 
Q 928 2841 928 2578 
Q 928 2378 1081 2264 
Q 1234 2150 1697 2047 
L 1894 2003 
Q 2506 1872 2764 1633 
Q 3022 1394 3022 966 
Q 3022 478 2636 193 
Q 2250 -91 1575 -91 
Q 1294 -91 989 -36 
Q 684 19 347 128 
L 347 722 
Q 666 556 975 473 
Q 1284 391 1588 391 
Q 1994 391 2212 530 
Q 2431 669 2431 922 
Q 2431 1156 2273 1281 
Q 2116 1406 1581 1522 
L 1381 1569 
Q 847 1681 609 1914 
Q 372 2147 372 2553 
Q 372 3047 722 3315 
Q 1072 3584 1716 3584 
Q 2034 3584 2315 3537 
Q 2597 3491 2834 3397 
z
" transform="scale(0.015625)"/>
      <path id="DejaVuSans-68" d="M 3513 2113 
L 3513 0 
L 2938 0 
L 2938 2094 
Q 2938 2591 2744 2837 
Q 2550 3084 2163 3084 
Q 1697 3084 1428 2787 
Q 1159 2491 1159 1978 
L 1159 0 
L 581 0 
L 581 4863 
L 1159 4863 
L 1159 2956 
Q 1366 3272 1645 3428 
Q 1925 3584 2291 3584 
Q 2894 3584 3203 3211 
Q 3513 2838 3513 2113 
z
" transform="scale(0.015625)"/>
     </defs>
     <use xlink:href="#DejaVuSans-73"/>
     <use xlink:href="#DejaVuSans-68" transform="translate(52.099609 0)"/>
    </g>
   </g>
   <g id="text_2">
    <!-- io -->
    <g transform="translate(292.5 12.098438) scale(0.1 -0.1)">
     <defs>
      <path id="DejaVuSans-69" d="M 603 3500 
L 1178 3500 
L 1178 0 
L 603 0 
L 603 3500 
z
M 603 4863 
L 1178 4863 
L 1178 4134 
L 603 4134 
L 603 4863 
z
" transform="scale(0.015625)"/>
      <path id="DejaVuSans-6f" d="M 1959 3097 
Q 1497 3097 1228 2736 
Q 959 2375 959 1747 
Q 959 1119 1226 758 
Q 1494 397 1959 397 
Q 2419 397 2687 759 
Q 2956 1122 2956 1747 
Q 2956 2369 2687 2733 
Q 2419 3097 1959 3097 
z
M 1959 3584 
Q 2709 3584 3137 3096 
Q 3566 2609 3566 1747 
Q 3566 888 3137 398 
Q 2709 -91 1959 -91 
Q 1206 -91 779 398 
Q 353 888 353 1747 
Q 353 2609 779 3096 
Q 1206 3584 1959 3584 
z
" transform="scale(0.015625)"/>
     </defs>
     <use xlink:href="#DejaVuSans-69"/>
     <use xlink:href="#DejaVuSans-6f" transform="translate(27.783203 0)"/>
    </g>
   </g>
   <g id="text_3">
    <!-- io -->
    <g transform="translate(148.5 138.098438) scale(0.1 -0.1)">
     <use xlink:href="#DejaVuSans-69"/>
     <use xlink:href="#DejaVuSans-6f" transform="translate(27.783203 0)"/>
    </g>
   </g>
   <g id="text_4">
    <!-- io -->
    <g transform="translate(112.5 210.098438) scale(0.1 -0.1)">
     <use xlink:href="#DejaVuSans-69"/>
     <use xlink:href="#DejaVuSans-6f" transform="translate(27.783203 0)"/>
    </g>
   </g>
   <g id="text_5">
    <!-- io -->
    <g transform="translate(292.5 210.098438) scale(0.1 -0.1)">
     <use xlink:href="#DejaVuSans-69"/>
     <use xlink:href="#DejaVuSans-6f" transform="translate(27.783203 0)"/>
    </g>
   </g>
   <g id="text_6">
    <!-- io -->
    <g transform="translate(256.5 282.098438) scale(0.1 -0.1)">
     <use xlink:href="#DejaVuSans-69"/>
     <use xlink:href="#DejaVuSans-6f" transform="translate(27.783203 0)"/>
    </g>
   </g>
   <g id="text_7">
    <!-- io -->
    <g transform="translate(328.5 282.098438) scale(0.1 -0.1)">
     <use xlink:href="#DejaVuSans-69"/>
     <use xlink:href="#DejaVuSans-6f" transform="translate(27.783203 0)"/>
    </g>
   </g>
   <g id="text_8">
    <!-- sh -->
    <g transform="translate(40.5 354.098438) scale(0.1 -0.1)">
     <use xlink:href="#DejaVuSans-73"/>
     <use xlink:href="#DejaVuSans-68" transform="translate(52.099609 0)"/>
    </g>
   </g>
   <g id="text_9">
    <!-- io -->
    <g transform="translate(76.5 426.098438) scale(0.1 -0.1)">
     <use xlink:href="#DejaVuSans-69"/>
     <use xlink:href="#DejaVuSans-6f" transform="translate(27.783203 0)"/>
    </g>
   </g>
   <g id="text_10">
    <!-- sh -->
    <g transform="translate(148.5 498.098437) scale(0.1 -0.1)">
     <use xlink:href="#DejaVuSans-73"/>
     <use xlink:href="#DejaVuSans-68" transform="translate(52.099609 0)"/>
    </g>
   </g>
   <g id="text_11">
    <!-- io -->
    <g transform="translate(220.5 570.098438) scale(0.1 -0.1)">
     <use xlink:href="#DejaVuSans-69"/>
     <use xlink:href="#DejaVuSans-6f" transform="translate(27.783203 0)"/>
    </g>
   </g>
   <g id="text_12">
    <!-- sh -->
    <g transform="translate(148.5 642.098438) scale(0.1 -0.1)">
     <use xlink:href="#DejaVuSans-73"/>
     <use xlink:href="#DejaVuSans-68" transform="translate(52.099609 0)"/>
    </g>
   </g>
   <g id="text_13">
    <!-- io -->
    <g transform="translate(184.5 714.098438) scale(0.1 -0.1)">
     <use xlink:href="#DejaVuSans-69"/>
     <use xlink:href="#DejaVuSans-6f" transform="translate(27.783203 0)"/>
    </g>
   </g>
   <g id="text_14">
    <!-- sh -->
    <g transform="translate(256.5 786.098438) scale(0.1 -0.1)">
     <use xlink:href="#DejaVuSans-73"/>
     <use xlink:href="#DejaVuSans-68" transform="translate(52.099609 0)"/>
    </g>
   </g>
   <g id="text_15">
    <!-- io -->
    <g transform="translate(292.5 858.098438) scale(0.1 -0.1)">
     <use xlink:href="#DejaVuSans-69"/>
     <use xlink:href="#DejaVuSans-6f" transform="translate(27.783203 0)"/>
    </g>
   </g>
   <g id="text_16">
    <!-- io -->
    <g transform="translate(130.5 930.098438) scale(0.1 -0.1)">
     <use xlink:href="#DejaVuSans-69"/>
     <use xlink:href="#DejaVuSans-6f" transform="translate(27.783203 0)"/>
    </g>
   </g>
   <g id="text_17">
    <!-- io -->
    <g transform="translate(211.5 1002.098438) scale(0.1 -0.1)">
     <use xlink:href="#DejaVuSans-69"/>
     <use xlink:href="#DejaVuSans-6f" transform="translate(27.783203 0)"/>
    </g>
   </g>
   <g id="text_18">
    <!-- cat examples/shell.yaml -->
    <g transform="translate(47.325781 38.759375) scale(0.1 -0.1)">
     <defs>
      <path id="DejaVuSans-63" d="M 3122 3366 
L 3122 2828 
Q 2878 2963 2633 3030 
Q 2388 3097 2138 3097 
Q 1578 3097 1268 2742 
Q 959 2388 959 1747 
Q 959 1106 1268 751 
Q 1578 397 2138 397 
Q 2388 397 2633 464 
Q 2878 531 3122 666 
L 3122 134 
Q 2881 22 2623 -34 
Q 2366 -91 2075 -91 
Q 1284 -91 818 406 
Q 353 903 353 1747 
Q 353 2603 823 3093 
Q 1294 3584 2113 3584 
Q 2378 3584 2631 3529 
Q 2884 3475 3122 3366 
z
" transform="scale(0.015625)"/>
      <path id="DejaVuSans-61" d="M 2194 1759 
Q 1497 1759 1228 1600 
Q 959 1441 959 1056 
Q 959 750 1161 570 
Q 1363 391 1709 391 
Q 2188 391 2477 730 
Q 2766 1069 2766 1631 
L 2766 1759 
L 2194 1759 
z
M 3341 1997 
L 3341 0 
L 2766 0 
L 2766 531 
Q 2569 213 2275 61 
Q 1981 -91 1556 -91 
Q 1019 -91 701 211 
Q 384 513 384 1019 
Q 384 1609 779 1909 
Q 1175 2209 1959 2209 
L 2766 2209 
L 2766 2266 
Q 2766 2663 2505 2880 
Q 2244 3097 1772 3097 
Q 1472 3097 1187 3025 
Q 903 2953 641 2809 
L 641 3341 
Q 956 3463 1253 3523 
Q 1550 3584 1831 3584 
Q 2591 3584 2966 3190 
Q 3341 2797 3341 1997 
z
" transform="scale(0.015625)"/>
      <path id="DejaVuSans-74" d="M 1172 4494 
L 1172 3500 
L 2356 3500 
L 2356 3053 
L 1172 3053 
L 1172 1153 
Q 1172 725 1289 603 
Q 1406 481 1766 481 
L 2356 481 
L 2356 0 
L 1766 0 
Q 1100 0 847 248 
Q 594 497 594 1153 
L 594 3053 
L 172 3053 
L 172 3500 
L 594 3500 
L 594 4494 
L 1172 4494 
z
" transform="scale(0.015625)"/>
      <path id="DejaVuSans-20" transform="scale(0.015625)"/>
      <path id="DejaVuSans-65" d="M 3597 1894 
L 3597 1613 
L 953 1613 
Q 991 1019 1311 708 
Q 1631 397 2203 397 
Q 2534 397 2845 478 
Q 3156 559 3463 722 
L 3463 178 
Q 3153 47 2828 -22 
Q 2503 -91 2169 -91 
Q 1331 -91 842 396 
Q 353 884 353 1716 
Q 353 2575 817 3079 
Q 1281 3584 2069 3584 
Q 2775 3584 3186 3129 
Q 3597 2675 3597 1894 
z
M 3022 2063 
Q 3016 2534 2758 2815 
Q 2500 3097 2075 3097 
Q 1594 3097 1305 2825 
Q 1016 2553 972 2059 
L 3022 2063 
z
" transform="scale(0.015625)"/>
      <path id="DejaVuSans-78" d="M 3513 3500 
L 2247 1797 
L 3578 0 
L 2900 0 
L 1881 1375 
L 863 0 
L 184 0 
L 1544 1831 
L 300 3500 
L 978 3500 
L 1906 2253 
L 2834 3500 
L 3513 3500 
z
" transform="scale(0.015625)"/>
      <path id="DejaVuSans-6d" d="M 3328 2828 
Q 3544 3216 3844 3400 
Q 4144 3584 4550 3584 
Q 5097 3584 5394 3201 
Q 5691 2819 5691 2113 
L 5691 0 
L 5113 0 
L 5113 2094 
Q 5113 2597 4934 2840 
Q 4756 3084 4391 3084 
Q 3944 3084 3684 2787 
Q 3425 2491 3425 1978 
L 3425 0 
L 2847 0 
L 2847 2094 
Q 2847 2600 2669 2842 
Q 2491 3084 2119 3084 
Q 1678 3084 1418 2786 
Q 1159 2488 1159 1978 
L 1159 0 
L 581 0 
L 581 3500 
L 1159 3500 
L 1159 2956 
Q 1356 3278 1631 3431 
Q 1906 3584 2284 3584 
Q 2666 3584 2933 3390 
Q 3200 3197 3328 2828 
z
" transform="scale(0.015625)"/>
      <path id="DejaVuSans-70" d="M 1159 525 
L 1159 -1331 
L 581 -1331 
L 581 3500 
L 1159 3500 
L 1159 2969 
Q 1341 3281 1617 3432 
Q 1894 3584 2278 3584 
Q 2916 3584 3314 3078 
Q 3713 2572 3713 1747 
Q 3713 922 3314 415 
Q 2916 -91 2278 -91 
Q 1894 -91 1617 61 
Q 1341 213 1159 525 
z
M 3116 1747 
Q 3116 2381 2855 2742 
Q 2594 3103 2138 3103 
Q 1681 3103 1420 2742 
Q 1159 2381 1159 1747 
Q 1159 1113 1420 752 
Q 1681 391 2138 391 
Q 2594 391 2855 752 
Q 3116 1113 3116 1747 
z
" transform="scale(0.015625)"/>
      <path id="DejaVuSans-6c" d="M 603 4863 
L 1178 4863 
L 1178 0 
L 603 0 
L 603 4863 
z
" transform="scale(0.015625)"/>
      <path id="DejaVuSans-2f" d="M 1625 4666 
L 2156 4666 
L 531 -594 
L 0 -594 
L 1625 4666 
z
" transform="scale(0.015625)"/>
      <path id="DejaVuSans-2e" d="M 684 794 
L 1344 794 
L 1344 0 
L 684 0 
L 684 794 
z
" transform="scale(0.015625)"/>
      <path id="DejaVuSans-79" d="M 2059 -325 
Q 1816 -950 1584 -1140 
Q 1353 -1331 966 -1331 
L 506 -1331 
L 506 -850 
L 844 -850 
Q 1081 -850 1212 -737 
Q 1344 -625 1503 -206 
L 1606 56 
L 191 3500 
L 800 3500 
L 1894 763 
L 2988 3500 
L 3597 3500 
L 2059 -325 
z
" transform="scale(0.015625)"/>
     </defs>
     <use xlink:href="#DejaVuSans-63"/>
     <use xlink:href="#DejaVuSans-61" transform="translate(54.980469 0)"/>
     <use xlink:href="#DejaVuSans-74" transform="translate(116.259766 0)"/>
     <use xlink:href="#DejaVuSans-20" transform="translate(155.46875 0)"/>
     <use xlink:href="#DejaVuSans-65" transform="translate(187.255859 0)"/>
     <use xlink:href="#DejaVuSans-78" transform="translate(247.029297 0)"/>
     <use xlink:href="#DejaVuSans-61" transform="translate(306.208984 0)"/>
     <use xlink:href="#DejaVuSans-6d" transform="translate(367.488281 0)"/>
     <use xlink:href="#DejaVuSans-70" transform="translate(464.900391 0)"/>
     <use xlink:href="#DejaVuSans-6c" transform="translate(528.376953 0)"/>
     <use xlink:href="#DejaVuSans-65" transform="translate(556.160156 0)"/>
     <use xlink:href="#DejaVuSans-73" transform="translate(617.683594 0)"/>
     <use xlink:href="#DejaVuSans-2f" transform="translate(669.783203 0)"/>
     <use xlink:href="#DejaVuSans-73" transform="translate(703.474609 0)"/>
     <use xlink:href="#DejaVuSans-68" transform="translate(755.574219 0)"/>
     <use xlink:href="#DejaVuSans-65" transform="translate(818.953125 0)"/>
     <use xlink:href="#DejaVuSans-6c" transform="translate(880.476562 0)"/>
     <use xlink:href="#DejaVuSans-6c" transform="translate(908.259766 0)"/>
     <use xlink:href="#DejaVuSans-2e" transform="translate(936.042969 0)"/>
     <use xlink:href="#DejaVuSans-79" transform="translate(967.830078 0)"/>
     <use xlink:href="#DejaVuSans-61" transform="translate(1027.009766 0)"/>
     <use xlink:href="#DejaVuSans-6d" transform="translate(1088.289062 0)"/>
     <use xlink:href="#DejaVuSans-6c" transform="translate(1185.701172 0)"/>
    </g>
   </g>
   <g id="text_19">
    <!-- out(shell) -->
    <g transform="translate(174.282031 110.759375) scale(0.1 -0.1)">
     <defs>
      <path id="DejaVuSans-75" d="M 544 1381 
L 544 3500 
L 1119 3500 
L 1119 1403 
Q 1119 906 1312 657 
Q 1506 409 1894 409 
Q 2359 409 2629 706 
Q 2900 1003 2900 1516 
L 2900 3500 
L 3475 3500 
L 3475 0 
L 2900 0 
L 2900 538 
Q 2691 219 2414 64 
Q 2138 -91 1772 -91 
Q 1169 -91 856 284 
Q 544 659 544 1381 
z
M 1991 3584 
L 1991 3584 
z
" transform="scale(0.015625)"/>
      <path id="DejaVuSans-28" d="M 1984 4856 
Q 1566 4138 1362 3434 
Q 1159 2731 1159 2009 
Q 1159 1288 1364 580 
Q 1569 -128 1984 -844 
L 1484 -844 
Q 1016 -109 783 600 
Q 550 1309 550 2009 
Q 550 2706 781 3412 
Q 1013 4119 1484 4856 
L 1984 4856 
z
" transform="scale(0.015625)"/>
      <path id="DejaVuSans-29" d="M 513 4856 
L 1013 4856 
Q 1481 4119 1714 3412 
Q 1947 2706 1947 2009 
Q 1947 1309 1714 600 
Q 1481 -109 1013 -844 
L 513 -844 
Q 928 -128 1133 580 
Q 1338 1288 1338 2009 
Q 1338 2731 1133 3434 
Q 928 4138 513 4856 
z
" transform="scale(0.015625)"/>
     </defs>
     <use xlink:href="#DejaVuSans-6f"/>
     <use xlink:href="#DejaVuSans-75" transform="translate(61.181641 0)"/>
     <use xlink:href="#DejaVuSans-74" transform="translate(124.560547 0)"/>
     <use xlink:href="#DejaVuSans-28" transform="translate(163.769531 0)"/>
     <use xlink:href="#DejaVuSans-73" transform="translate(202.783203 0)"/>
     <use xlink:href="#DejaVuSans-68" transform="translate(254.882812 0)"/>
     <use xlink:href="#DejaVuSans-65" transform="translate(318.261719 0)"/>
     <use xlink:href="#DejaVuSans-6c" transform="translate(379.785156 0)"/>
     <use xlink:href="#DejaVuSans-6c" transform="translate(407.568359 0)"/>
     <use xlink:href="#DejaVuSans-29" transform="translate(435.351562 0)"/>
    </g>
   </g>
   <g id="text_20">
    <!-- wc -c -->
    <g transform="translate(23.019531 326.759375) scale(0.1 -0.1)">
     <defs>
      <path id="DejaVuSans-77" d="M 269 3500 
L 844 3500 
L 1563 769 
L 2278 3500 
L 2956 3500 
L 3675 769 
L 4391 3500 
L 4966 3500 
L 4050 0 
L 3372 0 
L 2619 2869 
L 1863 0 
L 1184 0 
L 269 3500 
z
" transform="scale(0.015625)"/>
      <path id="DejaVuSans-2d" d="M 313 2009 
L 1997 2009 
L 1997 1497 
L 313 1497 
L 313 2009 
z
" transform="scale(0.015625)"/>
     </defs>
     <use xlink:href="#DejaVuSans-77"/>
     <use xlink:href="#DejaVuSans-63" transform="translate(81.787109 0)"/>
     <use xlink:href="#DejaVuSans-20" transform="translate(136.767578 0)"/>
     <use xlink:href="#DejaVuSans-2d" transform="translate(168.554688 0)"/>
     <use xlink:href="#DejaVuSans-63" transform="translate(204.638672 0)"/>
    </g>
   </g>
   <g id="text_21">
    <!-- out(shell) -->
    <g transform="translate(48.282031 398.759375) scale(0.1 -0.1)">
     <use xlink:href="#DejaVuSans-6f"/>
     <use xlink:href="#DejaVuSans-75" transform="translate(61.181641 0)"/>
     <use xlink:href="#DejaVuSans-74" transform="translate(124.560547 0)"/>
     <use xlink:href="#DejaVuSans-28" transform="translate(163.769531 0)"/>
     <use xlink:href="#DejaVuSans-73" transform="translate(202.783203 0)"/>
     <use xlink:href="#DejaVuSans-68" transform="translate(254.882812 0)"/>
     <use xlink:href="#DejaVuSans-65" transform="translate(318.261719 0)"/>
     <use xlink:href="#DejaVuSans-6c" transform="translate(379.785156 0)"/>
     <use xlink:href="#DejaVuSans-6c" transform="translate(407.568359 0)"/>
     <use xlink:href="#DejaVuSans-29" transform="translate(435.351562 0)"/>
    </g>
   </g>
   <g id="text_22">
    <!-- grep grep -->
    <g transform="translate(119.675 470.759375) scale(0.1 -0.1)">
     <defs>
      <path id="DejaVuSans-67" d="M 2906 1791 
Q 2906 2416 2648 2759 
Q 2391 3103 1925 3103 
Q 1463 3103 1205 2759 
Q 947 2416 947 1791 
Q 947 1169 1205 825 
Q 1463 481 1925 481 
Q 2391 481 2648 825 
Q 2906 1169 2906 1791 
z
M 3481 434 
Q 3481 -459 3084 -895 
Q 2688 -1331 1869 -1331 
Q 1566 -1331 1297 -1286 
Q 1028 -1241 775 -1147 
L 775 -588 
Q 1028 -725 1275 -790 
Q 1522 -856 1778 -856 
Q 2344 -856 2625 -561 
Q 2906 -266 2906 331 
L 2906 616 
Q 2728 306 2450 153 
Q 2172 0 1784 0 
Q 1141 0 747 490 
Q 353 981 353 1791 
Q 353 2603 747 3093 
Q 1141 3584 1784 3584 
Q 2172 3584 2450 3431 
Q 2728 3278 2906 2969 
L 2906 3500 
L 3481 3500 
L 3481 434 
z
" transform="scale(0.015625)"/>
      <path id="DejaVuSans-72" d="M 2631 2963 
Q 2534 3019 2420 3045 
Q 2306 3072 2169 3072 
Q 1681 3072 1420 2755 
Q 1159 2438 1159 1844 
L 1159 0 
L 581 0 
L 581 3500 
L 1159 3500 
L 1159 2956 
Q 1341 3275 1631 3429 
Q 1922 3584 2338 3584 
Q 2397 3584 2469 3576 
Q 2541 3569 2628 3553 
L 2631 2963 
z
" transform="scale(0.015625)"/>
     </defs>
     <use xlink:href="#DejaVuSans-67"/>
     <use xlink:href="#DejaVuSans-72" transform="translate(63.476562 0)"/>
     <use xlink:href="#DejaVuSans-65" transform="translate(102.339844 0)"/>
     <use xlink:href="#DejaVuSans-70" transform="translate(163.863281 0)"/>
     <use xlink:href="#DejaVuSans-20" transform="translate(227.339844 0)"/>
     <use xlink:href="#DejaVuSans-67" transform="translate(259.126953 0)"/>
     <use xlink:href="#DejaVuSans-72" transform="translate(322.603516 0)"/>
     <use xlink:href="#DejaVuSans-65" transform="translate(361.466797 0)"/>
     <use xlink:href="#DejaVuSans-70" transform="translate(422.990234 0)"/>
    </g>
   </g>
   <g id="text_23">
    <!-- out(shell) -->
    <g transform="translate(174.282031 542.759375) scale(0.1 -0.1)">
     <use xlink:href="#DejaVuSans-6f"/>
     <use xlink:href="#DejaVuSans-75" transform="translate(61.181641 0)"/>
     <use xlink:href="#DejaVuSans-74" transform="translate(124.560547 0)"/>
     <use xlink:href="#DejaVuSans-28" transform="translate(163.769531 0)"/>
     <use xlink:href="#DejaVuSans-73" transform="translate(202.783203 0)"/>
     <use xlink:href="#DejaVuSans-68" transform="translate(254.882812 0)"/>
     <use xlink:href="#DejaVuSans-65" transform="translate(318.261719 0)"/>
     <use xlink:href="#DejaVuSans-6c" transform="translate(379.785156 0)"/>
     <use xlink:href="#DejaVuSans-6c" transform="translate(407.568359 0)"/>
     <use xlink:href="#DejaVuSans-29" transform="translate(435.351562 0)"/>
    </g>
   </g>
   <g id="text_24">
    <!-- wc -c -->
    <g transform="translate(131.019531 614.759375) scale(0.1 -0.1)">
     <use xlink:href="#DejaVuSans-77"/>
     <use xlink:href="#DejaVuSans-63" transform="translate(81.787109 0)"/>
     <use xlink:href="#DejaVuSans-20" transform="translate(136.767578 0)"/>
     <use xlink:href="#DejaVuSans-2d" transform="translate(168.554688 0)"/>
     <use xlink:href="#DejaVuSans-63" transform="translate(204.638672 0)"/>
    </g>
   </g>
   <g id="text_25">
    <!-- out(shell) -->
    <g transform="translate(156.282031 686.759375) scale(0.1 -0.1)">
     <use xlink:href="#DejaVuSans-6f"/>
     <use xlink:href="#DejaVuSans-75" transform="translate(61.181641 0)"/>
     <use xlink:href="#DejaVuSans-74" transform="translate(124.560547 0)"/>
     <use xlink:href="#DejaVuSans-28" transform="translate(163.769531 0)"/>
     <use xlink:href="#DejaVuSans-73" transform="translate(202.783203 0)"/>
     <use xlink:href="#DejaVuSans-68" transform="translate(254.882812 0)"/>
     <use xlink:href="#DejaVuSans-65" transform="translate(318.261719 0)"/>
     <use xlink:href="#DejaVuSans-6c" transform="translate(379.785156 0)"/>
     <use xlink:href="#DejaVuSans-6c" transform="translate(407.568359 0)"/>
     <use xlink:href="#DejaVuSans-29" transform="translate(435.351562 0)"/>
    </g>
   </g>
   <g id="text_26">
    <!-- tail -2 -->
    <g transform="translate(237.623437 758.759375) scale(0.1 -0.1)">
     <defs>
      <path id="DejaVuSans-32" d="M 1228 531 
L 3431 531 
L 3431 0 
L 469 0 
L 469 531 
Q 828 903 1448 1529 
Q 2069 2156 2228 2338 
Q 2531 2678 2651 2914 
Q 2772 3150 2772 3378 
Q 2772 3750 2511 3984 
Q 2250 4219 1831 4219 
Q 1534 4219 1204 4116 
Q 875 4013 500 3803 
L 500 4441 
Q 881 4594 1212 4672 
Q 1544 4750 1819 4750 
Q 2544 4750 2975 4387 
Q 3406 4025 3406 3419 
Q 3406 3131 3298 2873 
Q 3191 2616 2906 2266 
Q 2828 2175 2409 1742 
Q 1991 1309 1228 531 
z
" transform="scale(0.015625)"/>
     </defs>
     <use xlink:href="#DejaVuSans-74"/>
     <use xlink:href="#DejaVuSans-61" transform="translate(39.208984 0)"/>
     <use xlink:href="#DejaVuSans-69" transform="translate(100.488281 0)"/>
     <use xlink:href="#DejaVuSans-6c" transform="translate(128.271484 0)"/>
     <use xlink:href="#DejaVuSans-20" transform="translate(156.054688 0)"/>
     <use xlink:href="#DejaVuSans-2d" transform="translate(187.841797 0)"/>
     <use xlink:href="#DejaVuSans-32" transform="translate(223.925781 0)"/>
    </g>
   </g>
   <g id="text_27">
    <!-- out(shell) -->
    <g transform="translate(264.282031 830.759375) scale(0.1 -0.1)">
     <use xlink:href="#DejaVuSans-6f"/>
     <use xlink:href="#DejaVuSans-75" transform="translate(61.181641 0)"/>
     <use xlink:href="#DejaVuSans-74" transform="translate(124.560547 0)"/>
     <use xlink:href="#DejaVuSans-28" transform="translate(163.769531 0)"/>
     <use xlink:href="#DejaVuSans-73" transform="translate(202.783203 0)"/>
     <use xlink:href="#DejaVuSans-68" transform="translate(254.882812 0)"/>
     <use xlink:href="#DejaVuSans-65" transform="translate(318.261719 0)"/>
     <use xlink:href="#DejaVuSans-6c" transform="translate(379.785156 0)"/>
     <use xlink:href="#DejaVuSans-6c" transform="translate(407.568359 0)"/>
     <use xlink:href="#DejaVuSans-29" transform="translate(435.351562 0)"/>
    </g>
   </g>
   <g id="text_28">
    <!-- merge -->
    <g transform="translate(109.834375 902.759375) scale(0.1 -0.1)">
     <use xlink:href="#DejaVuSans-6d"/>
     <use xlink:href="#DejaVuSans-65" transform="translate(97.412109 0)"/>
     <use xlink:href="#DejaVuSans-72" transform="translate(158.935547 0)"/>
     <use xlink:href="#DejaVuSans-67" transform="translate(198.298828 0)"/>
     <use xlink:href="#DejaVuSans-65" transform="translate(261.775391 0)"/>
    </g>
   </g>
   <g id="text_29">
    <!-- merge -->
    <g transform="translate(190.834375 974.759375) scale(0.1 -0.1)">
     <use xlink:href="#DejaVuSans-6d"/>
     <use xlink:href="#DejaVuSans-65" transform="translate(97.412109 0)"/>
     <use xlink:href="#DejaVuSans-72" transform="translate(158.935547 0)"/>
     <use xlink:href="#DejaVuSans-67" transform="translate(198.298828 0)"/>
     <use xlink:href="#DejaVuSans-65" transform="translate(261.775391 0)"/>
    </g>
   </g>
  </g>
 </g>
 <defs>
  <clipPath id="p8c35684184">
   <rect x="0" y="0" width="360" height="1008"/>
  </clipPath>
 </defs>
</svg>
