<?xml version="1.0" encoding="utf-8" standalone="no"?>
<!DOCTYPE svg PUBLIC "-//W3C//DTD SVG 1.1//EN"
  "http://www.w3.org/Graphics/SVG/1.1/DTD/svg11.dtd">
<svg xmlns:xlink="http://www.w3.org/1999/xlink" width="432pt" height="936pt" viewBox="0 0 432 936" xmlns="http://www.w3.org/2000/svg" version="1.1">
 <metadata>
  <rdf:RDF xmlns:dc="http://purl.org/dc/elements/1.1/" xmlns:cc="http://creativecommons.org/ns#" xmlns:rdf="http://www.w3.org/1999/02/22-rdf-syntax-ns#">
   <cc:Work>
    <dc:type rdf:resource="http://purl.org/dc/dcmitype/StillImage"/>
    <dc:date>2026-03-17T13:58:47.021520</dc:date>
    <dc:format>image/svg+xml</dc:format>
    <dc:creator>
     <cc:Agent>
      <dc:title>Matplotlib v3.10.8, https://matplotlib.org/</dc:title>
     </cc:Agent>
    </dc:creator>
   </cc:Work>
  </rdf:RDF>
 </metadata>
 <defs>
  <style type="text/css">*{stroke-linejoin: round; stroke-linecap: butt}</style>
 </defs>
 <g id="figure_1">
  <g id="patch_1">
   <path d="M 0 936 
L 432 936 
L 432 0 
L 0 0 
z
" style="fill: #ffffff"/>
  </g>
  <g id="axes_1">
   <g id="patch_2">
    <path d="M 0 936 
L 432 936 
L 432 0 
L 0 0 
z
" clip-path="url(#pe913550816)" style="fill: #ffffff; stroke: #ffffff; stroke-linejoin: miter"/>
   </g>
   <g id="patch_3">
    <path d="M 216 36 
Q 18 36 18 72 
" clip-path="url(#pe913550816)" style="fill: none; stroke: #000000; stroke-linejoin: miter"/>
   </g>
   <g id="patch_4">
    <path d="M 216 36 
Q 414 36 414 72 
" clip-path="url(#pe913550816)" style="fill: none; stroke: #000000; stroke-linejoin: miter"/>
   </g>
   <g id="patch_5">
    <path d="M 216 0 
Q 216 72 216 72 
" clip-path="url(#pe913550816)" style="fill: none; stroke: #000000; stroke-linejoin: miter"/>
   </g>
   <g id="patch_6">
    <path d="M 18 72 
Q 18 864 18 864 
" clip-path="url(#pe913550816)" style="fill: none; stroke: #000000; stroke-linejoin: miter"/>
   </g>
   <g id="patch_7">
    <path d="M 216 72 
Q 216 90 216 90 
" clip-path="url(#pe913550816)" style="fill: none; stroke: #000000; stroke-linejoin: miter"/>
   </g>
   <g id="patch_8">
    <path d="M 414 72 
Q 414 864 414 864 
" clip-path="url(#pe913550816)" style="fill: none; stroke: #000000; stroke-linejoin: miter"/>
   </g>
   <g id="patch_9">
    <path d="M 216 126 
Q 216 162 216 162 
" clip-path="url(#pe913550816)" style="fill: none; stroke: #000000; stroke-linejoin: miter"/>
   </g>
   <g id="patch_10">
    <path d="M 216 162 
Q 54 162 54 162 
" clip-path="url(#pe913550816)" style="fill: none; stroke: #000000; stroke-linejoin: miter"/>
   </g>
   <g id="patch_11">
    <path d="M 216 162 
Q 378 162 378 162 
" clip-path="url(#pe913550816)" style="fill: none; stroke: #000000; stroke-linejoin: miter"/>
   </g>
   <g id="patch_12">
    <path d="M 54 162 
Q 54 846 54 846 
" clip-path="url(#pe913550816)" style="fill: none; stroke: #000000; stroke-linejoin: miter"/>
   </g>
   <g id="patch_13">
    <path d="M 108 162 
Q 108 198 108 198 
" clip-path="url(#pe913550816)" style="fill: none; stroke: #000000; stroke-linejoin: miter"/>
   </g>
   <g id="patch_14">
    <path d="M 216 162 
Q 216 324 216 324 
" clip-path="url(#pe913550816)" style="fill: none; stroke: #000000; stroke-linejoin: miter"/>
   </g>
   <g id="patch_15">
    <path d="M 324 162 
Q 324 702 324 702 
" clip-path="url(#pe913550816)" style="fill: none; stroke: #000000; stroke-linejoin: miter"/>
   </g>
   <g id="patch_16">
    <path d="M 378 162 
Q 378 846 378 846 
" clip-path="url(#pe913550816)" style="fill: none; stroke: #000000; stroke-linejoin: miter"/>
   </g>
   <g id="patch_17">
    <path d="M 108 234 
Q 108 270 108 270 
" clip-path="url(#pe913550816)" style="fill: none; stroke: #000000; stroke-linejoin: miter"/>
   </g>
   <g id="patch_18">
    <path d="M 108 306 
Q 108 846 108 846 
" clip-path="url(#pe913550816)" style="fill: none; stroke: #000000; stroke-linejoin: miter"/>
   </g>
   <g id="patch_19">
    <path d="M 216 360 
Q 162 360 162 396 
" clip-path="url(#pe913550816)" style="fill: none; stroke: #000000; stroke-linejoin: miter"/>
   </g>
   <g id="patch_20">
    <path d="M 216 360 
Q 270 360 270 396 
" clip-path="url(#pe913550816)" style="fill: none; stroke: #000000; stroke-linejoin: miter"/>
   </g>
   <g id="patch_21">
    <path d="M 216 324 
Q 216 396 216 396 
" clip-path="url(#pe913550816)" style="fill: none; stroke: #000000; stroke-linejoin: miter"/>
   </g>
   <g id="patch_22">
    <path d="M 162 396 
Q 162 540 162 540 
" clip-path="url(#pe913550816)" style="fill: none; stroke: #000000; stroke-linejoin: miter"/>
   </g>
   <g id="patch_23">
    <path d="M 216 396 
Q 216 414 216 414 
" clip-path="url(#pe913550816)" style="fill: none; stroke: #000000; stroke-linejoin: miter"/>
   </g>
   <g id="patch_24">
    <path d="M 270 396 
Q 270 540 270 540 
" clip-path="url(#pe913550816)" style="fill: none; stroke: #000000; stroke-linejoin: miter"/>
   </g>
   <g id="patch_25">
    <path d="M 216 450 
Q 216 486 216 486 
" clip-path="url(#pe913550816)" style="fill: none; stroke: #000000; stroke-linejoin: miter"/>
   </g>
   <g id="patch_26">
    <path d="M 216 522 
Q 216 540 216 540 
" clip-path="url(#pe913550816)" style="fill: none; stroke: #000000; stroke-linejoin: miter"/>
   </g>
   <g id="patch_27">
    <path d="M 162 540 
Q 162 576 216 576 
" clip-path="url(#pe913550816)" style="fill: none; stroke: #000000; stroke-linejoin: miter"/>
   </g>
   <g id="patch_28">
    <path d="M 216 540 
Q 216 612 216 612 
" clip-path="url(#pe913550816)" style="fill: none; stroke: #000000; stroke-linejoin: miter"/>
   </g>
   <g id="patch_29">
    <path d="M 270 540 
Q 270 576 216 576 
" clip-path="url(#pe913550816)" style="fill: none; stroke: #000000; stroke-linejoin: miter"/>
   </g>
   <g id="patch_30">
    <path d="M 216 612 
Q 216 630 216 630 
" clip-path="url(#pe913550816)" style="fill: none; stroke: #000000; stroke-linejoin: miter"/>
   </g>
   <g id="patch_31">
    <path d="M 216 666 
Q 216 846 216 846 
" clip-path="url(#pe913550816)" style="fill: none; stroke: #000000; stroke-linejoin: miter"/>
   </g>
   <g id="patch_32">
    <path d="M 324 738 
Q 324 774 324 774 
" clip-path="url(#pe913550816)" style="fill: none; stroke: #000000; stroke-linejoin: miter"/>
   </g>
   <g id="patch_33">
    <path d="M 324 810 
Q 324 846 324 846 
" clip-path="url(#pe913550816)" style="fill: none; stroke: #000000; stroke-linejoin: miter"/>
   </g>
   <g id="patch_34">
    <path d="M 54 846 
Q 54 846 216 846 
" clip-path="url(#pe913550816)" style="fill: none; stroke: #000000; stroke-linejoin: miter"/>
   </g>
   <g id="patch_35">
    <path d="M 378 846 
Q 378 846 216 846 
" clip-path="url(#pe913550816)" style="fill: none; stroke: #000000; stroke-linejoin: miter"/>
   </g>
   <g id="patch_36">
    <path d="M 216 846 
Q 216 864 216 864 
" clip-path="url(#pe913550816)" style="fill: none; stroke: #000000; stroke-linejoin: miter"/>
   </g>
   <g id="patch_37">
    <path d="M 18 864 
Q 18 900 216 900 
" clip-path="url(#pe913550816)" style="fill: none; stroke: #000000; stroke-linejoin: miter"/>
   </g>
   <g id="patch_38">
    <path d="M 216 864 
Q 216 936 216 936 
" clip-path="url(#pe913550816)" style="fill: none; stroke: #000000; stroke-linejoin: miter"/>
   </g>
   <g id="patch_39">
    <path d="M 414 864 
Q 414 900 216 900 
" clip-path="url(#pe913550816)" style="fill: none; stroke: #000000; stroke-linejoin: miter"/>
   </g>
   <g id="patch_40">
    <path d="M 198 126 
L 198 90 
L 234 90 
L 234 126 
z
" clip-path="url(#pe913550816)" style="fill: #ffffff; stroke: #000000; stroke-linejoin: miter"/>
   </g>
   <g id="patch_41">
    <path d="M 90 234 
L 90 198 
L 126 198 
L 126 234 
z
" clip-path="url(#pe913550816)" style="fill: #ffffff; stroke: #000000; stroke-linejoin: miter"/>
   </g>
   <g id="patch_42">
    <path d="M 90 306 
L 90 270 
L 126 270 
L 126 306 
z
" clip-path="url(#pe913550816)" style="fill: #ffffff; stroke: #000000; stroke-linejoin: miter"/>
   </g>
   <g id="patch_43">
    <path d="M 198 450 
L 198 414 
L 234 414 
L 234 450 
z
" clip-path="url(#pe913550816)" style="fill: #ffffff; stroke: #000000; stroke-linejoin: miter"/>
   </g>
   <g id="patch_44">
    <path d="M 198 522 
L 198 486 
L 234 486 
L 234 522 
z
" clip-path="url(#pe913550816)" style="fill: #ffffff; stroke: #000000; stroke-linejoin: miter"/>
   </g>
   <g id="patch_45">
    <path d="M 198 666 
L 198 630 
L 234 630 
L 234 666 
z
" clip-path="url(#pe913550816)" style="fill: #ffffff; stroke: #000000; stroke-linejoin: miter"/>
   </g>
   <g id="patch_46">
    <path d="M 306 738 
L 306 702 
L 342 702 
L 342 738 
z
" clip-path="url(#pe913550816)" style="fill: #ffffff; stroke: #000000; stroke-linejoin: miter"/>
   </g>
   <g id="patch_47">
    <path d="M 306 810 
L 306 774 
L 342 774 
L 342 810 
z
" clip-path="url(#pe913550816)" style="fill: #ffffff; stroke: #000000; stroke-linejoin: miter"/>
   </g>
   <g id="text_1">
    <!-- yaml_stream -->
    <g transform="translate(220.5 12.098438) scale(0.1 -0.1)">
     <defs>
      <path id="DejaVuSans-79" d="M 2059 -325 
Q 1816 -950 1584 -1140 
Q 1353 -1331 966 -1331 
L 506 -1331 
L 506 -850 
L 844 -850 
Q 1081 -850 1212 -737 
Q 1344 -625 1503 -206 
L 1606 56 
L 191 3500 
L 800 3500 
L 1894 763 
L 2988 3500 
L 3597 3500 
L 2059 -325 
z
" transform="scale(0.015625)"/>
      <path id="DejaVuSans-61" d="M 2194 1759 
Q 1497 1759 1228 1600 
Q 959 1441 959 1056 
Q 959 750 1161 570 
Q 1363 391 1709 391 
Q 2188 391 2477 730 
Q 2766 1069 2766 1631 
L 2766 1759 
L 2194 1759 
z
M 3341 1997 
L 3341 0 
L 2766 0 
L 2766 531 
Q 2569 213 2275 61 
Q 1981 -91 1556 -91 
Q 1019 -91 701 211 
Q 384 513 384 1019 
Q 384 1609 779 1909 
Q 1175 2209 1959 2209 
L 2766 2209 
L 2766 2266 
Q 2766 2663 2505 2880 
Q 2244 3097 1772 3097 
Q 1472 3097 1187 3025 
Q 903 2953 641 2809 
L 641 3341 
Q 956 3463 1253 3523 
Q 1550 3584 1831 3584 
Q 2591 3584 2966 3190 
Q 3341 2797 3341 1997 
z
" transform="scale(0.015625)"/>
      <path id="DejaVuSans-6d" d="M 3328 2828 
Q 3544 3216 3844 3400 
Q 4144 3584 4550 3584 
Q 5097 3584 5394 3201 
Q 5691 2819 5691 2113 
L 5691 0 
L 5113 0 
L 5113 2094 
Q 5113 2597 4934 2840 
Q 4756 3084 4391 3084 
Q 3944 3084 3684 2787 
Q 3425 2491 3425 1978 
L 3425 0 
L 2847 0 
L 2847 2094 
Q 2847 2600 2669 2842 
Q 2491 3084 2119 3084 
Q 1678 3084 1418 2786 
Q 1159 2488 1159 1978 
L 1159 0 
L 581 0 
L 581 3500 
L 1159 3500 
L 1159 2956 
Q 1356 3278 1631 3431 
Q 1906 3584 2284 3584 
Q 2666 3584 2933 3390 
Q 3200 3197 3328 2828 
z
" transform="scale(0.015625)"/>
      <path id="DejaVuSans-6c" d="M 603 4863 
L 1178 4863 
L 1178 0 
L 603 0 
L 603 4863 
z
" transform="scale(0.015625)"/>
      <path id="DejaVuSans-5f" d="M 3263 -1063 
L 3263 -1509 
L -63 -1509 
L -63 -1063 
L 3263 -1063 
z
" transform="scale(0.015625)"/>
      <path id="DejaVuSans-73" d="M 2834 3397 
L 2834 2853 
Q 2591 2978 2328 3040 
Q 2066 3103 1784 3103 
Q 1356 3103 1142 2972 
Q 928 2841 928 2578 
Q 928 2378 1081 2264 
Q 1234 2150 1697 2047 
L 1894 2003 
Q 2506 1872 2764 1633 
Q 3022 1394 3022 966 
Q 3022 478 2636 193 
Q 2250 -91 1575 -91 
Q 1294 -91 989 -36 
Q 684 19 347 128 
L 347 722 
Q 666 556 975 473 
Q 1284 391 1588 391 
Q 1994 391 2212 530 
Q 2431 669 2431 922 
Q 2431 1156 2273 1281 
Q 2116 1406 1581 1522 
L 1381 1569 
Q 847 1681 609 1914 
Q 372 2147 372 2553 
Q 372 3047 722 3315 
Q 1072 3584 1716 3584 
Q 2034 3584 2315 3537 
Q 2597 3491 2834 3397 
z
" transform="scale(0.015625)"/>
      <path id="DejaVuSans-74" d="M 1172 4494 
L 1172 3500 
L 2356 3500 
L 2356 3053 
L 1172 3053 
L 1172 1153 
Q 1172 725 1289 603 
Q 1406 481 1766 481 
L 2356 481 
L 2356 0 
L 1766 0 
Q 1100 0 847 248 
Q 594 497 594 1153 
L 594 3053 
L 172 3053 
L 172 3500 
L 594 3500 
L 594 4494 
L 1172 4494 
z
" transform="scale(0.015625)"/>
      <path id="DejaVuSans-72" d="M 2631 2963 
Q 2534 3019 2420 3045 
Q 2306 3072 2169 3072 
Q 1681 3072 1420 2755 
Q 1159 2438 1159 1844 
L 1159 0 
L 581 0 
L 581 3500 
L 1159 3500 
L 1159 2956 
Q 1341 3275 1631 3429 
Q 1922 3584 2338 3584 
Q 2397 3584 2469 3576 
Q 2541 3569 2628 3553 
L 2631 2963 
z
" transform="scale(0.015625)"/>
      <path id="DejaVuSans-65" d="M 3597 1894 
L 3597 1613 
L 953 1613 
Q 991 1019 1311 708 
Q 1631 397 2203 397 
Q 2534 397 2845 478 
Q 3156 559 3463 722 
L 3463 178 
Q 3153 47 2828 -22 
Q 2503 -91 2169 -91 
Q 1331 -91 842 396 
Q 353 884 353 1716 
Q 353 2575 817 3079 
Q 1281 3584 2069 3584 
Q 2775 3584 3186 3129 
Q 3597 2675 3597 1894 
z
M 3022 2063 
Q 3016 2534 2758 2815 
Q 2500 3097 2075 3097 
Q 1594 3097 1305 2825 
Q 1016 2553 972 2059 
L 3022 2063 
z
" transform="scale(0.015625)"/>
     </defs>
     <use xlink:href="#DejaVuSans-79"/>
     <use xlink:href="#DejaVuSans-61" transform="translate(59.179688 0)"/>
     <use xlink:href="#DejaVuSans-6d" transform="translate(120.458984 0)"/>
     <use xlink:href="#DejaVuSans-6c" transform="translate(217.871094 0)"/>
     <use xlink:href="#DejaVuSans-5f" transform="translate(245.654297 0)"/>
     <use xlink:href="#DejaVuSans-73" transform="translate(295.654297 0)"/>
     <use xlink:href="#DejaVuSans-74" transform="translate(347.753906 0)"/>
     <use xlink:href="#DejaVuSans-72" transform="translate(386.962891 0)"/>
     <use xlink:href="#DejaVuSans-65" transform="translate(425.826172 0)"/>
     <use xlink:href="#DejaVuSans-61" transform="translate(487.349609 0)"/>
     <use xlink:href="#DejaVuSans-6d" transform="translate(548.628906 0)"/>
    </g>
   </g>
   <g id="text_2">
    <!-- map -->
    <g transform="translate(22.5 66.098438) scale(0.1 -0.1)">
     <defs>
      <path id="DejaVuSans-70" d="M 1159 525 
L 1159 -1331 
L 581 -1331 
L 581 3500 
L 1159 3500 
L 1159 2969 
Q 1341 3281 1617 3432 
Q 1894 3584 2278 3584 
Q 2916 3584 3314 3078 
Q 3713 2572 3713 1747 
Q 3713 922 3314 415 
Q 2916 -91 2278 -91 
Q 1894 -91 1617 61 
Q 1341 213 1159 525 
z
M 3116 1747 
Q 3116 2381 2855 2742 
Q 2594 3103 2138 3103 
Q 1681 3103 1420 2742 
Q 1159 2381 1159 1747 
Q 1159 1113 1420 752 
Q 1681 391 2138 391 
Q 2594 391 2855 752 
Q 3116 1113 3116 1747 
z
" transform="scale(0.015625)"/>
     </defs>
     <use xlink:href="#DejaVuSans-6d"/>
     <use xlink:href="#DejaVuSans-61" transform="translate(97.412109 0)"/>
     <use xlink:href="#DejaVuSans-70" transform="translate(158.691406 0)"/>
    </g>
   </g>
   <g id="text_3">
    <!-- yaml_stream -->
    <g transform="translate(220.5 66.098438) scale(0.1 -0.1)">
     <use xlink:href="#DejaVuSans-79"/>
     <use xlink:href="#DejaVuSans-61" transform="translate(59.179688 0)"/>
     <use xlink:href="#DejaVuSans-6d" transform="translate(120.458984 0)"/>
     <use xlink:href="#DejaVuSans-6c" transform="translate(217.871094 0)"/>
     <use xlink:href="#DejaVuSans-5f" transform="translate(245.654297 0)"/>
     <use xlink:href="#DejaVuSans-73" transform="translate(295.654297 0)"/>
     <use xlink:href="#DejaVuSans-74" transform="translate(347.753906 0)"/>
     <use xlink:href="#DejaVuSans-72" transform="translate(386.962891 0)"/>
     <use xlink:href="#DejaVuSans-65" transform="translate(425.826172 0)"/>
     <use xlink:href="#DejaVuSans-61" transform="translate(487.349609 0)"/>
     <use xlink:href="#DejaVuSans-6d" transform="translate(548.628906 0)"/>
    </g>
   </g>
   <g id="text_4">
    <!-- yaml_stream -->
    <g transform="translate(220.5 138.098438) scale(0.1 -0.1)">
     <use xlink:href="#DejaVuSans-79"/>
     <use xlink:href="#DejaVuSans-61" transform="translate(59.179688 0)"/>
     <use xlink:href="#DejaVuSans-6d" transform="translate(120.458984 0)"/>
     <use xlink:href="#DejaVuSans-6c" transform="translate(217.871094 0)"/>
     <use xlink:href="#DejaVuSans-5f" transform="translate(245.654297 0)"/>
     <use xlink:href="#DejaVuSans-73" transform="translate(295.654297 0)"/>
     <use xlink:href="#DejaVuSans-74" transform="translate(347.753906 0)"/>
     <use xlink:href="#DejaVuSans-72" transform="translate(386.962891 0)"/>
     <use xlink:href="#DejaVuSans-65" transform="translate(425.826172 0)"/>
     <use xlink:href="#DejaVuSans-61" transform="translate(487.349609 0)"/>
     <use xlink:href="#DejaVuSans-6d" transform="translate(548.628906 0)"/>
    </g>
   </g>
   <g id="text_5">
    <!-- map -->
    <g transform="translate(58.5 174.098438) scale(0.1 -0.1)">
     <use xlink:href="#DejaVuSans-6d"/>
     <use xlink:href="#DejaVuSans-61" transform="translate(97.412109 0)"/>
     <use xlink:href="#DejaVuSans-70" transform="translate(158.691406 0)"/>
    </g>
   </g>
   <g id="text_6">
    <!-- yaml_stream -->
    <g transform="translate(112.5 174.098438) scale(0.1 -0.1)">
     <use xlink:href="#DejaVuSans-79"/>
     <use xlink:href="#DejaVuSans-61" transform="translate(59.179688 0)"/>
     <use xlink:href="#DejaVuSans-6d" transform="translate(120.458984 0)"/>
     <use xlink:href="#DejaVuSans-6c" transform="translate(217.871094 0)"/>
     <use xlink:href="#DejaVuSans-5f" transform="translate(245.654297 0)"/>
     <use xlink:href="#DejaVuSans-73" transform="translate(295.654297 0)"/>
     <use xlink:href="#DejaVuSans-74" transform="translate(347.753906 0)"/>
     <use xlink:href="#DejaVuSans-72" transform="translate(386.962891 0)"/>
     <use xlink:href="#DejaVuSans-65" transform="translate(425.826172 0)"/>
     <use xlink:href="#DejaVuSans-61" transform="translate(487.349609 0)"/>
     <use xlink:href="#DejaVuSans-6d" transform="translate(548.628906 0)"/>
    </g>
   </g>
   <g id="text_7">
    <!-- yaml_stream -->
    <g transform="translate(220.5 174.098438) scale(0.1 -0.1)">
     <use xlink:href="#DejaVuSans-79"/>
     <use xlink:href="#DejaVuSans-61" transform="translate(59.179688 0)"/>
     <use xlink:href="#DejaVuSans-6d" transform="translate(120.458984 0)"/>
     <use xlink:href="#DejaVuSans-6c" transform="translate(217.871094 0)"/>
     <use xlink:href="#DejaVuSans-5f" transform="translate(245.654297 0)"/>
     <use xlink:href="#DejaVuSans-73" transform="translate(295.654297 0)"/>
     <use xlink:href="#DejaVuSans-74" transform="translate(347.753906 0)"/>
     <use xlink:href="#DejaVuSans-72" transform="translate(386.962891 0)"/>
     <use xlink:href="#DejaVuSans-65" transform="translate(425.826172 0)"/>
     <use xlink:href="#DejaVuSans-61" transform="translate(487.349609 0)"/>
     <use xlink:href="#DejaVuSans-6d" transform="translate(548.628906 0)"/>
    </g>
   </g>
   <g id="text_8">
    <!-- yaml_stream -->
    <g transform="translate(328.5 174.098438) scale(0.1 -0.1)">
     <use xlink:href="#DejaVuSans-79"/>
     <use xlink:href="#DejaVuSans-61" transform="translate(59.179688 0)"/>
     <use xlink:href="#DejaVuSans-6d" transform="translate(120.458984 0)"/>
     <use xlink:href="#DejaVuSans-6c" transform="translate(217.871094 0)"/>
     <use xlink:href="#DejaVuSans-5f" transform="translate(245.654297 0)"/>
     <use xlink:href="#DejaVuSans-73" transform="translate(295.654297 0)"/>
     <use xlink:href="#DejaVuSans-74" transform="translate(347.753906 0)"/>
     <use xlink:href="#DejaVuSans-72" transform="translate(386.962891 0)"/>
     <use xlink:href="#DejaVuSans-65" transform="translate(425.826172 0)"/>
     <use xlink:href="#DejaVuSans-61" transform="translate(487.349609 0)"/>
     <use xlink:href="#DejaVuSans-6d" transform="translate(548.628906 0)"/>
    </g>
   </g>
   <g id="text_9">
    <!-- yaml_stream -->
    <g transform="translate(112.5 246.098438) scale(0.1 -0.1)">
     <use xlink:href="#DejaVuSans-79"/>
     <use xlink:href="#DejaVuSans-61" transform="translate(59.179688 0)"/>
     <use xlink:href="#DejaVuSans-6d" transform="translate(120.458984 0)"/>
     <use xlink:href="#DejaVuSans-6c" transform="translate(217.871094 0)"/>
     <use xlink:href="#DejaVuSans-5f" transform="translate(245.654297 0)"/>
     <use xlink:href="#DejaVuSans-73" transform="translate(295.654297 0)"/>
     <use xlink:href="#DejaVuSans-74" transform="translate(347.753906 0)"/>
     <use xlink:href="#DejaVuSans-72" transform="translate(386.962891 0)"/>
     <use xlink:href="#DejaVuSans-65" transform="translate(425.826172 0)"/>
     <use xlink:href="#DejaVuSans-61" transform="translate(487.349609 0)"/>
     <use xlink:href="#DejaVuSans-6d" transform="translate(548.628906 0)"/>
    </g>
   </g>
   <g id="text_10">
    <!-- yaml_stream -->
    <g transform="translate(112.5 318.098438) scale(0.1 -0.1)">
     <use xlink:href="#DejaVuSans-79"/>
     <use xlink:href="#DejaVuSans-61" transform="translate(59.179688 0)"/>
     <use xlink:href="#DejaVuSans-6d" transform="translate(120.458984 0)"/>
     <use xlink:href="#DejaVuSans-6c" transform="translate(217.871094 0)"/>
     <use xlink:href="#DejaVuSans-5f" transform="translate(245.654297 0)"/>
     <use xlink:href="#DejaVuSans-73" transform="translate(295.654297 0)"/>
     <use xlink:href="#DejaVuSans-74" transform="translate(347.753906 0)"/>
     <use xlink:href="#DejaVuSans-72" transform="translate(386.962891 0)"/>
     <use xlink:href="#DejaVuSans-65" transform="translate(425.826172 0)"/>
     <use xlink:href="#DejaVuSans-61" transform="translate(487.349609 0)"/>
     <use xlink:href="#DejaVuSans-6d" transform="translate(548.628906 0)"/>
    </g>
   </g>
   <g id="text_11">
    <!-- map -->
    <g transform="translate(166.5 390.098438) scale(0.1 -0.1)">
     <use xlink:href="#DejaVuSans-6d"/>
     <use xlink:href="#DejaVuSans-61" transform="translate(97.412109 0)"/>
     <use xlink:href="#DejaVuSans-70" transform="translate(158.691406 0)"/>
    </g>
   </g>
   <g id="text_12">
    <!-- yaml_stream -->
    <g transform="translate(220.5 390.098438) scale(0.1 -0.1)">
     <use xlink:href="#DejaVuSans-79"/>
     <use xlink:href="#DejaVuSans-61" transform="translate(59.179688 0)"/>
     <use xlink:href="#DejaVuSans-6d" transform="translate(120.458984 0)"/>
     <use xlink:href="#DejaVuSans-6c" transform="translate(217.871094 0)"/>
     <use xlink:href="#DejaVuSans-5f" transform="translate(245.654297 0)"/>
     <use xlink:href="#DejaVuSans-73" transform="translate(295.654297 0)"/>
     <use xlink:href="#DejaVuSans-74" transform="translate(347.753906 0)"/>
     <use xlink:href="#DejaVuSans-72" transform="translate(386.962891 0)"/>
     <use xlink:href="#DejaVuSans-65" transform="translate(425.826172 0)"/>
     <use xlink:href="#DejaVuSans-61" transform="translate(487.349609 0)"/>
     <use xlink:href="#DejaVuSans-6d" transform="translate(548.628906 0)"/>
    </g>
   </g>
   <g id="text_13">
    <!-- yaml_stream -->
    <g transform="translate(220.5 462.098437) scale(0.1 -0.1)">
     <use xlink:href="#DejaVuSans-79"/>
     <use xlink:href="#DejaVuSans-61" transform="translate(59.179688 0)"/>
     <use xlink:href="#DejaVuSans-6d" transform="translate(120.458984 0)"/>
     <use xlink:href="#DejaVuSans-6c" transform="translate(217.871094 0)"/>
     <use xlink:href="#DejaVuSans-5f" transform="translate(245.654297 0)"/>
     <use xlink:href="#DejaVuSans-73" transform="translate(295.654297 0)"/>
     <use xlink:href="#DejaVuSans-74" transform="translate(347.753906 0)"/>
     <use xlink:href="#DejaVuSans-72" transform="translate(386.962891 0)"/>
     <use xlink:href="#DejaVuSans-65" transform="translate(425.826172 0)"/>
     <use xlink:href="#DejaVuSans-61" transform="translate(487.349609 0)"/>
     <use xlink:href="#DejaVuSans-6d" transform="translate(548.628906 0)"/>
    </g>
   </g>
   <g id="text_14">
    <!-- yaml_stream -->
    <g transform="translate(220.5 534.098438) scale(0.1 -0.1)">
     <use xlink:href="#DejaVuSans-79"/>
     <use xlink:href="#DejaVuSans-61" transform="translate(59.179688 0)"/>
     <use xlink:href="#DejaVuSans-6d" transform="translate(120.458984 0)"/>
     <use xlink:href="#DejaVuSans-6c" transform="translate(217.871094 0)"/>
     <use xlink:href="#DejaVuSans-5f" transform="translate(245.654297 0)"/>
     <use xlink:href="#DejaVuSans-73" transform="translate(295.654297 0)"/>
     <use xlink:href="#DejaVuSans-74" transform="translate(347.753906 0)"/>
     <use xlink:href="#DejaVuSans-72" transform="translate(386.962891 0)"/>
     <use xlink:href="#DejaVuSans-65" transform="translate(425.826172 0)"/>
     <use xlink:href="#DejaVuSans-61" transform="translate(487.349609 0)"/>
     <use xlink:href="#DejaVuSans-6d" transform="translate(548.628906 0)"/>
    </g>
   </g>
   <g id="text_15">
    <!-- yaml_stream -->
    <g transform="translate(220.5 606.098438) scale(0.1 -0.1)">
     <use xlink:href="#DejaVuSans-79"/>
     <use xlink:href="#DejaVuSans-61" transform="translate(59.179688 0)"/>
     <use xlink:href="#DejaVuSans-6d" transform="translate(120.458984 0)"/>
     <use xlink:href="#DejaVuSans-6c" transform="translate(217.871094 0)"/>
     <use xlink:href="#DejaVuSans-5f" transform="translate(245.654297 0)"/>
     <use xlink:href="#DejaVuSans-73" transform="translate(295.654297 0)"/>
     <use xlink:href="#DejaVuSans-74" transform="translate(347.753906 0)"/>
     <use xlink:href="#DejaVuSans-72" transform="translate(386.962891 0)"/>
     <use xlink:href="#DejaVuSans-65" transform="translate(425.826172 0)"/>
     <use xlink:href="#DejaVuSans-61" transform="translate(487.349609 0)"/>
     <use xlink:href="#DejaVuSans-6d" transform="translate(548.628906 0)"/>
    </g>
   </g>
   <g id="text_16">
    <!-- yaml_stream -->
    <g transform="translate(220.5 678.098438) scale(0.1 -0.1)">
     <use xlink:href="#DejaVuSans-79"/>
     <use xlink:href="#DejaVuSans-61" transform="translate(59.179688 0)"/>
     <use xlink:href="#DejaVuSans-6d" transform="translate(120.458984 0)"/>
     <use xlink:href="#DejaVuSans-6c" transform="translate(217.871094 0)"/>
     <use xlink:href="#DejaVuSans-5f" transform="translate(245.654297 0)"/>
     <use xlink:href="#DejaVuSans-73" transform="translate(295.654297 0)"/>
     <use xlink:href="#DejaVuSans-74" transform="translate(347.753906 0)"/>
     <use xlink:href="#DejaVuSans-72" transform="translate(386.962891 0)"/>
     <use xlink:href="#DejaVuSans-65" transform="translate(425.826172 0)"/>
     <use xlink:href="#DejaVuSans-61" transform="translate(487.349609 0)"/>
     <use xlink:href="#DejaVuSans-6d" transform="translate(548.628906 0)"/>
    </g>
   </g>
   <g id="text_17">
    <!-- yaml_stream -->
    <g transform="translate(328.5 750.098438) scale(0.1 -0.1)">
     <use xlink:href="#DejaVuSans-79"/>
     <use xlink:href="#DejaVuSans-61" transform="translate(59.179688 0)"/>
     <use xlink:href="#DejaVuSans-6d" transform="translate(120.458984 0)"/>
     <use xlink:href="#DejaVuSans-6c" transform="translate(217.871094 0)"/>
     <use xlink:href="#DejaVuSans-5f" transform="translate(245.654297 0)"/>
     <use xlink:href="#DejaVuSans-73" transform="translate(295.654297 0)"/>
     <use xlink:href="#DejaVuSans-74" transform="translate(347.753906 0)"/>
     <use xlink:href="#DejaVuSans-72" transform="translate(386.962891 0)"/>
     <use xlink:href="#DejaVuSans-65" transform="translate(425.826172 0)"/>
     <use xlink:href="#DejaVuSans-61" transform="translate(487.349609 0)"/>
     <use xlink:href="#DejaVuSans-6d" transform="translate(548.628906 0)"/>
    </g>
   </g>
   <g id="text_18">
    <!-- yaml_stream -->
    <g transform="translate(328.5 822.098438) scale(0.1 -0.1)">
     <use xlink:href="#DejaVuSans-79"/>
     <use xlink:href="#DejaVuSans-61" transform="translate(59.179688 0)"/>
     <use xlink:href="#DejaVuSans-6d" transform="translate(120.458984 0)"/>
     <use xlink:href="#DejaVuSans-6c" transform="translate(217.871094 0)"/>
     <use xlink:href="#DejaVuSans-5f" transform="translate(245.654297 0)"/>
     <use xlink:href="#DejaVuSans-73" transform="translate(295.654297 0)"/>
     <use xlink:href="#DejaVuSans-74" transform="translate(347.753906 0)"/>
     <use xlink:href="#DejaVuSans-72" transform="translate(386.962891 0)"/>
     <use xlink:href="#DejaVuSans-65" transform="translate(425.826172 0)"/>
     <use xlink:href="#DejaVuSans-61" transform="translate(487.349609 0)"/>
     <use xlink:href="#DejaVuSans-6d" transform="translate(548.628906 0)"/>
    </g>
   </g>
   <g id="text_19">
    <!-- yaml_stream -->
    <g transform="translate(220.5 858.098438) scale(0.1 -0.1)">
     <use xlink:href="#DejaVuSans-79"/>
     <use xlink:href="#DejaVuSans-61" transform="translate(59.179688 0)"/>
     <use xlink:href="#DejaVuSans-6d" transform="translate(120.458984 0)"/>
     <use xlink:href="#DejaVuSans-6c" transform="translate(217.871094 0)"/>
     <use xlink:href="#DejaVuSans-5f" transform="translate(245.654297 0)"/>
     <use xlink:href="#DejaVuSans-73" transform="translate(295.654297 0)"/>
     <use xlink:href="#DejaVuSans-74" transform="translate(347.753906 0)"/>
     <use xlink:href="#DejaVuSans-72" transform="translate(386.962891 0)"/>
     <use xlink:href="#DejaVuSans-65" transform="translate(425.826172 0)"/>
     <use xlink:href="#DejaVuSans-61" transform="translate(487.349609 0)"/>
     <use xlink:href="#DejaVuSans-6d" transform="translate(548.628906 0)"/>
    </g>
   </g>
   <g id="text_20">
    <!-- yaml_stream -->
    <g transform="translate(220.5 930.098438) scale(0.1 -0.1)">
     <use xlink:href="#DejaVuSans-79"/>
     <use xlink:href="#DejaVuSans-61" transform="translate(59.179688 0)"/>
     <use xlink:href="#DejaVuSans-6d" transform="translate(120.458984 0)"/>
     <use xlink:href="#DejaVuSans-6c" transform="translate(217.871094 0)"/>
     <use xlink:href="#DejaVuSans-5f" transform="translate(245.654297 0)"/>
     <use xlink:href="#DejaVuSans-73" transform="translate(295.654297 0)"/>
     <use xlink:href="#DejaVuSans-74" transform="translate(347.753906 0)"/>
     <use xlink:href="#DejaVuSans-72" transform="translate(386.962891 0)"/>
     <use xlink:href="#DejaVuSans-65" transform="translate(425.826172 0)"/>
     <use xlink:href="#DejaVuSans-61" transform="translate(487.349609 0)"/>
     <use xlink:href="#DejaVuSans-6d" transform="translate(548.628906 0)"/>
    </g>
   </g>
   <g id="text_21">
    <!-- !cat 'examples/shell.yaml' -->
    <g transform="translate(150.572656 110.759375) scale(0.1 -0.1)">
     <defs>
      <path id="DejaVuSans-21" d="M 966 794 
L 1600 794 
L 1600 0 
L 966 0 
L 966 794 
z
M 966 4666 
L 1600 4666 
L 1600 2619 
L 1538 1503 
L 1031 1503 
L 966 2619 
L 966 4666 
z
" transform="scale(0.015625)"/>
      <path id="DejaVuSans-63" d="M 3122 3366 
L 3122 2828 
Q 2878 2963 2633 3030 
Q 2388 3097 2138 3097 
Q 1578 3097 1268 2742 
Q 959 2388 959 1747 
Q 959 1106 1268 751 
Q 1578 397 2138 397 
Q 2388 397 2633 464 
Q 2878 531 3122 666 
L 3122 134 
Q 2881 22 2623 -34 
Q 2366 -91 2075 -91 
Q 1284 -91 818 406 
Q 353 903 353 1747 
Q 353 2603 823 3093 
Q 1294 3584 2113 3584 
Q 2378 3584 2631 3529 
Q 2884 3475 3122 3366 
z
" transform="scale(0.015625)"/>
      <path id="DejaVuSans-20" transform="scale(0.015625)"/>
      <path id="DejaVuSans-27" d="M 1147 4666 
L 1147 2931 
L 616 2931 
L 616 4666 
L 1147 4666 
z
" transform="scale(0.015625)"/>
      <path id="DejaVuSans-78" d="M 3513 3500 
L 2247 1797 
L 3578 0 
L 2900 0 
L 1881 1375 
L 863 0 
L 184 0 
L 1544 1831 
L 300 3500 
L 978 3500 
L 1906 2253 
L 2834 3500 
L 3513 3500 
z
" transform="scale(0.015625)"/>
      <path id="DejaVuSans-2f" d="M 1625 4666 
L 2156 4666 
L 531 -594 
L 0 -594 
L 1625 4666 
z
" transform="scale(0.015625)"/>
      <path id="DejaVuSans-68" d="M 3513 2113 
L 3513 0 
L 2938 0 
L 2938 2094 
Q 2938 2591 2744 2837 
Q 2550 3084 2163 3084 
Q 1697 3084 1428 2787 
Q 1159 2491 1159 1978 
L 1159 0 
L 581 0 
L 581 4863 
L 1159 4863 
L 1159 2956 
Q 1366 3272 1645 3428 
Q 1925 3584 2291 3584 
Q 2894 3584 3203 3211 
Q 3513 2838 3513 2113 
z
" transform="scale(0.015625)"/>
      <path id="DejaVuSans-2e" d="M 684 794 
L 1344 794 
L 1344 0 
L 684 0 
L 684 794 
z
" transform="scale(0.015625)"/>
     </defs>
     <use xlink:href="#DejaVuSans-21"/>
     <use xlink:href="#DejaVuSans-63" transform="translate(40.087891 0)"/>
     <use xlink:href="#DejaVuSans-61" transform="translate(95.068359 0)"/>
     <use xlink:href="#DejaVuSans-74" transform="translate(156.347656 0)"/>
     <use xlink:href="#DejaVuSans-20" transform="translate(195.556641 0)"/>
     <use xlink:href="#DejaVuSans-27" transform="translate(227.34375 0)"/>
     <use xlink:href="#DejaVuSans-65" transform="translate(254.833984 0)"/>
     <use xlink:href="#DejaVuSans-78" transform="translate(314.607422 0)"/>
     <use xlink:href="#DejaVuSans-61" transform="translate(373.787109 0)"/>
     <use xlink:href="#DejaVuSans-6d" transform="translate(435.066406 0)"/>
     <use xlink:href="#DejaVuSans-70" transform="translate(532.478516 0)"/>
     <use xlink:href="#DejaVuSans-6c" transform="translate(595.955078 0)"/>
     <use xlink:href="#DejaVuSans-65" transform="translate(623.738281 0)"/>
     <use xlink:href="#DejaVuSans-73" transform="translate(685.261719 0)"/>
     <use xlink:href="#DejaVuSans-2f" transform="translate(737.361328 0)"/>
     <use xlink:href="#DejaVuSans-73" transform="translate(771.052734 0)"/>
     <use xlink:href="#DejaVuSans-68" transform="translate(823.152344 0)"/>
     <use xlink:href="#DejaVuSans-65" transform="translate(886.53125 0)"/>
     <use xlink:href="#DejaVuSans-6c" transform="translate(948.054688 0)"/>
     <use xlink:href="#DejaVuSans-6c" transform="translate(975.837891 0)"/>
     <use xlink:href="#DejaVuSans-2e" transform="translate(1003.621094 0)"/>
     <use xlink:href="#DejaVuSans-79" transform="translate(1035.408203 0)"/>
     <use xlink:href="#DejaVuSans-61" transform="translate(1094.587891 0)"/>
     <use xlink:href="#DejaVuSans-6d" transform="translate(1155.867188 0)"/>
     <use xlink:href="#DejaVuSans-6c" transform="translate(1253.279297 0)"/>
     <use xlink:href="#DejaVuSans-27" transform="translate(1281.0625 0)"/>
    </g>
   </g>
   <g id="text_22">
    <!-- !wc '-c' -->
    <g transform="translate(90.266406 218.759375) scale(0.1 -0.1)">
     <defs>
      <path id="DejaVuSans-77" d="M 269 3500 
L 844 3500 
L 1563 769 
L 2278 3500 
L 2956 3500 
L 3675 769 
L 4391 3500 
L 4966 3500 
L 4050 0 
L 3372 0 
L 2619 2869 
L 1863 0 
L 1184 0 
L 269 3500 
z
" transform="scale(0.015625)"/>
      <path id="DejaVuSans-2d" d="M 313 2009 
L 1997 2009 
L 1997 1497 
L 313 1497 
L 313 2009 
z
" transform="scale(0.015625)"/>
     </defs>
     <use xlink:href="#DejaVuSans-21"/>
     <use xlink:href="#DejaVuSans-77" transform="translate(40.087891 0)"/>
     <use xlink:href="#DejaVuSans-63" transform="translate(121.875 0)"/>
     <use xlink:href="#DejaVuSans-20" transform="translate(176.855469 0)"/>
     <use xlink:href="#DejaVuSans-27" transform="translate(208.642578 0)"/>
     <use xlink:href="#DejaVuSans-2d" transform="translate(236.132812 0)"/>
     <use xlink:href="#DejaVuSans-63" transform="translate(272.216797 0)"/>
     <use xlink:href="#DejaVuSans-27" transform="translate(327.197266 0)"/>
    </g>
   </g>
   <g id="text_23">
    <!-- '' -->
    <g transform="translate(105.251563 290.759375) scale(0.1 -0.1)">
     <use xlink:href="#DejaVuSans-27"/>
     <use xlink:href="#DejaVuSans-27" transform="translate(27.490234 0)"/>
    </g>
   </g>
   <g id="text_24">
    <!-- !grep 'grep' -->
    <g transform="translate(186.921875 434.759375) scale(0.1 -0.1)">
     <defs>
      <path id="DejaVuSans-67" d="M 2906 1791 
Q 2906 2416 2648 2759 
Q 2391 3103 1925 3103 
Q 1463 3103 1205 2759 
Q 947 2416 947 1791 
Q 947 1169 1205 825 
Q 1463 481 1925 481 
Q 2391 481 2648 825 
Q 2906 1169 2906 1791 
z
M 3481 434 
Q 3481 -459 3084 -895 
Q 2688 -1331 1869 -1331 
Q 1566 -1331 1297 -1286 
Q 1028 -1241 775 -1147 
L 775 -588 
Q 1028 -725 1275 -790 
Q 1522 -856 1778 -856 
Q 2344 -856 2625 -561 
Q 2906 -266 2906 331 
L 2906 616 
Q 2728 306 2450 153 
Q 2172 0 1784 0 
Q 1141 0 747 490 
Q 353 981 353 1791 
Q 353 2603 747 3093 
Q 1141 3584 1784 3584 
Q 2172 3584 2450 3431 
Q 2728 3278 2906 2969 
L 2906 3500 
L 3481 3500 
L 3481 434 
z
" transform="scale(0.015625)"/>
     </defs>
     <use xlink:href="#DejaVuSans-21"/>
     <use xlink:href="#DejaVuSans-67" transform="translate(40.087891 0)"/>
     <use xlink:href="#DejaVuSans-72" transform="translate(103.564453 0)"/>
     <use xlink:href="#DejaVuSans-65" transform="translate(142.427734 0)"/>
     <use xlink:href="#DejaVuSans-70" transform="translate(203.951172 0)"/>
     <use xlink:href="#DejaVuSans-20" transform="translate(267.427734 0)"/>
     <use xlink:href="#DejaVuSans-27" transform="translate(299.214844 0)"/>
     <use xlink:href="#DejaVuSans-67" transform="translate(326.705078 0)"/>
     <use xlink:href="#DejaVuSans-72" transform="translate(390.181641 0)"/>
     <use xlink:href="#DejaVuSans-65" transform="translate(429.044922 0)"/>
     <use xlink:href="#DejaVuSans-70" transform="translate(490.568359 0)"/>
     <use xlink:href="#DejaVuSans-27" transform="translate(554.044922 0)"/>
    </g>
   </g>
   <g id="text_25">
    <!-- !wc '-c' -->
    <g transform="translate(198.266406 506.759375) scale(0.1 -0.1)">
     <use xlink:href="#DejaVuSans-21"/>
     <use xlink:href="#DejaVuSans-77" transform="translate(40.087891 0)"/>
     <use xlink:href="#DejaVuSans-63" transform="translate(121.875 0)"/>
     <use xlink:href="#DejaVuSans-20" transform="translate(176.855469 0)"/>
     <use xlink:href="#DejaVuSans-27" transform="translate(208.642578 0)"/>
     <use xlink:href="#DejaVuSans-2d" transform="translate(236.132812 0)"/>
     <use xlink:href="#DejaVuSans-63" transform="translate(272.216797 0)"/>
     <use xlink:href="#DejaVuSans-27" transform="translate(327.197266 0)"/>
    </g>
   </g>
   <g id="text_26">
    <!-- '' -->
    <g transform="translate(213.251563 650.759375) scale(0.1 -0.1)">
     <use xlink:href="#DejaVuSans-27"/>
     <use xlink:href="#DejaVuSans-27" transform="translate(27.490234 0)"/>
    </g>
   </g>
   <g id="text_27">
    <!-- !tail '-2' -->
    <g transform="translate(304.870313 722.759375) scale(0.1 -0.1)">
     <defs>
      <path id="DejaVuSans-69" d="M 603 3500 
L 1178 3500 
L 1178 0 
L 603 0 
L 603 3500 
z
M 603 4863 
L 1178 4863 
L 1178 4134 
L 603 4134 
L 603 4863 
z
" transform="scale(0.015625)"/>
      <path id="DejaVuSans-32" d="M 1228 531 
L 3431 531 
L 3431 0 
L 469 0 
L 469 531 
Q 828 903 1448 1529 
Q 2069 2156 2228 2338 
Q 2531 2678 2651 2914 
Q 2772 3150 2772 3378 
Q 2772 3750 2511 3984 
Q 2250 4219 1831 4219 
Q 1534 4219 1204 4116 
Q 875 4013 500 3803 
L 500 4441 
Q 881 4594 1212 4672 
Q 1544 4750 1819 4750 
Q 2544 4750 2975 4387 
Q 3406 4025 3406 3419 
Q 3406 3131 3298 2873 
Q 3191 2616 2906 2266 
Q 2828 2175 2409 1742 
Q 1991 1309 1228 531 
z
" transform="scale(0.015625)"/>
     </defs>
     <use xlink:href="#DejaVuSans-21"/>
     <use xlink:href="#DejaVuSans-74" transform="translate(40.087891 0)"/>
     <use xlink:href="#DejaVuSans-61" transform="translate(79.296875 0)"/>
     <use xlink:href="#DejaVuSans-69" transform="translate(140.576172 0)"/>
     <use xlink:href="#DejaVuSans-6c" transform="translate(168.359375 0)"/>
     <use xlink:href="#DejaVuSans-20" transform="translate(196.142578 0)"/>
     <use xlink:href="#DejaVuSans-27" transform="translate(227.929688 0)"/>
     <use xlink:href="#DejaVuSans-2d" transform="translate(255.419922 0)"/>
     <use xlink:href="#DejaVuSans-32" transform="translate(291.503906 0)"/>
     <use xlink:href="#DejaVuSans-27" transform="translate(355.126953 0)"/>
    </g>
   </g>
   <g id="text_28">
    <!-- '' -->
    <g transform="translate(321.251562 794.759375) scale(0.1 -0.1)">
     <use xlink:href="#DejaVuSans-27"/>
     <use xlink:href="#DejaVuSans-27" transform="translate(27.490234 0)"/>
    </g>
   </g>
  </g>
 </g>
 <defs>
  <clipPath id="pe913550816">
   <rect x="0" y="0" width="432" height="936"/>
  </clipPath>
 </defs>
</svg>
