<?xml version="1.0" encoding="utf-8" standalone="no"?>
<!DOCTYPE svg PUBLIC "-//W3C//DTD SVG 1.1//EN"
  "http://www.w3.org/Graphics/SVG/1.1/DTD/svg11.dtd">
<svg xmlns:xlink="http://www.w3.org/1999/xlink" width="216pt" height="360pt" viewBox="0 0 216 360" xmlns="http://www.w3.org/2000/svg" version="1.1">
 <metadata>
  <rdf:RDF xmlns:dc="http://purl.org/dc/elements/1.1/" xmlns:cc="http://creativecommons.org/ns#" xmlns:rdf="http://www.w3.org/1999/02/22-rdf-syntax-ns#">
   <cc:Work>
    <dc:type rdf:resource="http://purl.org/dc/dcmitype/StillImage"/>
    <dc:date>2026-03-17T13:58:47.381517</dc:date>
    <dc:format>image/svg+xml</dc:format>
    <dc:creator>
     <cc:Agent>
      <dc:title>Matplotlib v3.10.8, https://matplotlib.org/</dc:title>
     </cc:Agent>
    </dc:creator>
   </cc:Work>
  </rdf:RDF>
 </metadata>
 <defs>
  <style type="text/css">*{stroke-linejoin: round; stroke-linecap: butt}</style>
 </defs>
 <g id="figure_1">
  <g id="patch_1">
   <path d="M 0 360 
L 216 360 
L 216 0 
L 0 0 
z
" style="fill: #ffffff"/>
  </g>
  <g id="axes_1">
   <g id="patch_2">
    <path d="M 0 360 
L 216 360 
L 216 0 
L 0 0 
z
" clip-path="url(#p0d411bed96)" style="fill: #ffffff; stroke: #ffffff; stroke-linejoin: miter"/>
   </g>
   <g id="patch_3">
    <path d="M 108 18 
Q 18 18 18 18 
" clip-path="url(#p0d411bed96)" style="fill: none; stroke: #000000; stroke-linejoin: miter"/>
   </g>
   <g id="patch_4">
    <path d="M 108 18 
Q 198 18 198 18 
" clip-path="url(#p0d411bed96)" style="fill: none; stroke: #000000; stroke-linejoin: miter"/>
   </g>
   <g id="patch_5">
    <path d="M 108 0 
Q 108 18 108 18 
" clip-path="url(#p0d411bed96)" style="fill: none; stroke: #000000; stroke-linejoin: miter"/>
   </g>
   <g id="patch_6">
    <path d="M 18 18 
Q 18 342 18 342 
" clip-path="url(#p0d411bed96)" style="fill: none; stroke: #000000; stroke-linejoin: miter"/>
   </g>
   <g id="patch_7">
    <path d="M 72 18 
Q 72 54 72 54 
" clip-path="url(#p0d411bed96)" style="fill: none; stroke: #000000; stroke-linejoin: miter"/>
   </g>
   <g id="patch_8">
    <path d="M 144 18 
Q 144 198 144 198 
" clip-path="url(#p0d411bed96)" style="fill: none; stroke: #000000; stroke-linejoin: miter"/>
   </g>
   <g id="patch_9">
    <path d="M 198 18 
Q 198 342 198 342 
" clip-path="url(#p0d411bed96)" style="fill: none; stroke: #000000; stroke-linejoin: miter"/>
   </g>
   <g id="patch_10">
    <path d="M 72 90 
Q 72 126 72 126 
" clip-path="url(#p0d411bed96)" style="fill: none; stroke: #000000; stroke-linejoin: miter"/>
   </g>
   <g id="patch_11">
    <path d="M 72 162 
Q 72 342 72 342 
" clip-path="url(#p0d411bed96)" style="fill: none; stroke: #000000; stroke-linejoin: miter"/>
   </g>
   <g id="patch_12">
    <path d="M 144 234 
Q 144 270 144 270 
" clip-path="url(#p0d411bed96)" style="fill: none; stroke: #000000; stroke-linejoin: miter"/>
   </g>
   <g id="patch_13">
    <path d="M 144 306 
Q 144 342 144 342 
" clip-path="url(#p0d411bed96)" style="fill: none; stroke: #000000; stroke-linejoin: miter"/>
   </g>
   <g id="patch_14">
    <path d="M 18 342 
Q 18 342 108 342 
" clip-path="url(#p0d411bed96)" style="fill: none; stroke: #000000; stroke-linejoin: miter"/>
   </g>
   <g id="patch_15">
    <path d="M 198 342 
Q 198 342 108 342 
" clip-path="url(#p0d411bed96)" style="fill: none; stroke: #000000; stroke-linejoin: miter"/>
   </g>
   <g id="patch_16">
    <path d="M 108 342 
Q 108 360 108 360 
" clip-path="url(#p0d411bed96)" style="fill: none; stroke: #000000; stroke-linejoin: miter"/>
   </g>
   <g id="patch_17">
    <path d="M 54 90 
L 54 54 
L 90 54 
L 90 90 
z
" clip-path="url(#p0d411bed96)" style="fill: #ffffff; stroke: #000000; stroke-linejoin: miter"/>
   </g>
   <g id="patch_18">
    <path d="M 54 162 
L 54 126 
L 90 126 
L 90 162 
z
" clip-path="url(#p0d411bed96)" style="fill: #ffffff; stroke: #000000; stroke-linejoin: miter"/>
   </g>
   <g id="patch_19">
    <path d="M 126 234 
L 126 198 
L 162 198 
L 162 234 
z
" clip-path="url(#p0d411bed96)" style="fill: #ffffff; stroke: #000000; stroke-linejoin: miter"/>
   </g>
   <g id="patch_20">
    <path d="M 126 306 
L 126 270 
L 162 270 
L 162 306 
z
" clip-path="url(#p0d411bed96)" style="fill: #ffffff; stroke: #000000; stroke-linejoin: miter"/>
   </g>
   <g id="text_1">
    <!-- yaml_stream -->
    <g transform="translate(112.5 12.098437) scale(0.1 -0.1)">
     <defs>
      <path id="DejaVuSans-79" d="M 2059 -325 
Q 1816 -950 1584 -1140 
Q 1353 -1331 966 -1331 
L 506 -1331 
L 506 -850 
L 844 -850 
Q 1081 -850 1212 -737 
Q 1344 -625 1503 -206 
L 1606 56 
L 191 3500 
L 800 3500 
L 1894 763 
L 2988 3500 
L 3597 3500 
L 2059 -325 
z
" transform="scale(0.015625)"/>
      <path id="DejaVuSans-61" d="M 2194 1759 
Q 1497 1759 1228 1600 
Q 959 1441 959 1056 
Q 959 750 1161 570 
Q 1363 391 1709 391 
Q 2188 391 2477 730 
Q 2766 1069 2766 1631 
L 2766 1759 
L 2194 1759 
z
M 3341 1997 
L 3341 0 
L 2766 0 
L 2766 531 
Q 2569 213 2275 61 
Q 1981 -91 1556 -91 
Q 1019 -91 701 211 
Q 384 513 384 1019 
Q 384 1609 779 1909 
Q 1175 2209 1959 2209 
L 2766 2209 
L 2766 2266 
Q 2766 2663 2505 2880 
Q 2244 3097 1772 3097 
Q 1472 3097 1187 3025 
Q 903 2953 641 2809 
L 641 3341 
Q 956 3463 1253 3523 
Q 1550 3584 1831 3584 
Q 2591 3584 2966 3190 
Q 3341 2797 3341 1997 
z
" transform="scale(0.015625)"/>
      <path id="DejaVuSans-6d" d="M 3328 2828 
Q 3544 3216 3844 3400 
Q 4144 3584 4550 3584 
Q 5097 3584 5394 3201 
Q 5691 2819 5691 2113 
L 5691 0 
L 5113 0 
L 5113 2094 
Q 5113 2597 4934 2840 
Q 4756 3084 4391 3084 
Q 3944 3084 3684 2787 
Q 3425 2491 3425 1978 
L 3425 0 
L 2847 0 
L 2847 2094 
Q 2847 2600 2669 2842 
Q 2491 3084 2119 3084 
Q 1678 3084 1418 2786 
Q 1159 2488 1159 1978 
L 1159 0 
L 581 0 
L 581 3500 
L 1159 3500 
L 1159 2956 
Q 1356 3278 1631 3431 
Q 1906 3584 2284 3584 
Q 2666 3584 2933 3390 
Q 3200 3197 3328 2828 
z
" transform="scale(0.015625)"/>
      <path id="DejaVuSans-6c" d="M 603 4863 
L 1178 4863 
L 1178 0 
L 603 0 
L 603 4863 
z
" transform="scale(0.015625)"/>
      <path id="DejaVuSans-5f" d="M 3263 -1063 
L 3263 -1509 
L -63 -1509 
L -63 -1063 
L 3263 -1063 
z
" transform="scale(0.015625)"/>
      <path id="DejaVuSans-73" d="M 2834 3397 
L 2834 2853 
Q 2591 2978 2328 3040 
Q 2066 3103 1784 3103 
Q 1356 3103 1142 2972 
Q 928 2841 928 2578 
Q 928 2378 1081 2264 
Q 1234 2150 1697 2047 
L 1894 2003 
Q 2506 1872 2764 1633 
Q 3022 1394 3022 966 
Q 3022 478 2636 193 
Q 2250 -91 1575 -91 
Q 1294 -91 989 -36 
Q 684 19 347 128 
L 347 722 
Q 666 556 975 473 
Q 1284 391 1588 391 
Q 1994 391 2212 530 
Q 2431 669 2431 922 
Q 2431 1156 2273 1281 
Q 2116 1406 1581 1522 
L 1381 1569 
Q 847 1681 609 1914 
Q 372 2147 372 2553 
Q 372 3047 722 3315 
Q 1072 3584 1716 3584 
Q 2034 3584 2315 3537 
Q 2597 3491 2834 3397 
z
" transform="scale(0.015625)"/>
      <path id="DejaVuSans-74" d="M 1172 4494 
L 1172 3500 
L 2356 3500 
L 2356 3053 
L 1172 3053 
L 1172 1153 
Q 1172 725 1289 603 
Q 1406 481 1766 481 
L 2356 481 
L 2356 0 
L 1766 0 
Q 1100 0 847 248 
Q 594 497 594 1153 
L 594 3053 
L 172 3053 
L 172 3500 
L 594 3500 
L 594 4494 
L 1172 4494 
z
" transform="scale(0.015625)"/>
      <path id="DejaVuSans-72" d="M 2631 2963 
Q 2534 3019 2420 3045 
Q 2306 3072 2169 3072 
Q 1681 3072 1420 2755 
Q 1159 2438 1159 1844 
L 1159 0 
L 581 0 
L 581 3500 
L 1159 3500 
L 1159 2956 
Q 1341 3275 1631 3429 
Q 1922 3584 2338 3584 
Q 2397 3584 2469 3576 
Q 2541 3569 2628 3553 
L 2631 2963 
z
" transform="scale(0.015625)"/>
      <path id="DejaVuSans-65" d="M 3597 1894 
L 3597 1613 
L 953 1613 
Q 991 1019 1311 708 
Q 1631 397 2203 397 
Q 2534 397 2845 478 
Q 3156 559 3463 722 
L 3463 178 
Q 3153 47 2828 -22 
Q 2503 -91 2169 -91 
Q 1331 -91 842 396 
Q 353 884 353 1716 
Q 353 2575 817 3079 
Q 1281 3584 2069 3584 
Q 2775 3584 3186 3129 
Q 3597 2675 3597 1894 
z
M 3022 2063 
Q 3016 2534 2758 2815 
Q 2500 3097 2075 3097 
Q 1594 3097 1305 2825 
Q 1016 2553 972 2059 
L 3022 2063 
z
" transform="scale(0.015625)"/>
     </defs>
     <use xlink:href="#DejaVuSans-79"/>
     <use xlink:href="#DejaVuSans-61" transform="translate(59.179688 0)"/>
     <use xlink:href="#DejaVuSans-6d" transform="translate(120.458984 0)"/>
     <use xlink:href="#DejaVuSans-6c" transform="translate(217.871094 0)"/>
     <use xlink:href="#DejaVuSans-5f" transform="translate(245.654297 0)"/>
     <use xlink:href="#DejaVuSans-73" transform="translate(295.654297 0)"/>
     <use xlink:href="#DejaVuSans-74" transform="translate(347.753906 0)"/>
     <use xlink:href="#DejaVuSans-72" transform="translate(386.962891 0)"/>
     <use xlink:href="#DejaVuSans-65" transform="translate(425.826172 0)"/>
     <use xlink:href="#DejaVuSans-61" transform="translate(487.349609 0)"/>
     <use xlink:href="#DejaVuSans-6d" transform="translate(548.628906 0)"/>
    </g>
   </g>
   <g id="text_2">
    <!-- map -->
    <g transform="translate(22.5 30.098437) scale(0.1 -0.1)">
     <defs>
      <path id="DejaVuSans-70" d="M 1159 525 
L 1159 -1331 
L 581 -1331 
L 581 3500 
L 1159 3500 
L 1159 2969 
Q 1341 3281 1617 3432 
Q 1894 3584 2278 3584 
Q 2916 3584 3314 3078 
Q 3713 2572 3713 1747 
Q 3713 922 3314 415 
Q 2916 -91 2278 -91 
Q 1894 -91 1617 61 
Q 1341 213 1159 525 
z
M 3116 1747 
Q 3116 2381 2855 2742 
Q 2594 3103 2138 3103 
Q 1681 3103 1420 2742 
Q 1159 2381 1159 1747 
Q 1159 1113 1420 752 
Q 1681 391 2138 391 
Q 2594 391 2855 752 
Q 3116 1113 3116 1747 
z
" transform="scale(0.015625)"/>
     </defs>
     <use xlink:href="#DejaVuSans-6d"/>
     <use xlink:href="#DejaVuSans-61" transform="translate(97.412109 0)"/>
     <use xlink:href="#DejaVuSans-70" transform="translate(158.691406 0)"/>
    </g>
   </g>
   <g id="text_3">
    <!-- yaml_stream -->
    <g transform="translate(76.5 30.098437) scale(0.1 -0.1)">
     <use xlink:href="#DejaVuSans-79"/>
     <use xlink:href="#DejaVuSans-61" transform="translate(59.179688 0)"/>
     <use xlink:href="#DejaVuSans-6d" transform="translate(120.458984 0)"/>
     <use xlink:href="#DejaVuSans-6c" transform="translate(217.871094 0)"/>
     <use xlink:href="#DejaVuSans-5f" transform="translate(245.654297 0)"/>
     <use xlink:href="#DejaVuSans-73" transform="translate(295.654297 0)"/>
     <use xlink:href="#DejaVuSans-74" transform="translate(347.753906 0)"/>
     <use xlink:href="#DejaVuSans-72" transform="translate(386.962891 0)"/>
     <use xlink:href="#DejaVuSans-65" transform="translate(425.826172 0)"/>
     <use xlink:href="#DejaVuSans-61" transform="translate(487.349609 0)"/>
     <use xlink:href="#DejaVuSans-6d" transform="translate(548.628906 0)"/>
    </g>
   </g>
   <g id="text_4">
    <!-- yaml_stream -->
    <g transform="translate(148.5 30.098437) scale(0.1 -0.1)">
     <use xlink:href="#DejaVuSans-79"/>
     <use xlink:href="#DejaVuSans-61" transform="translate(59.179688 0)"/>
     <use xlink:href="#DejaVuSans-6d" transform="translate(120.458984 0)"/>
     <use xlink:href="#DejaVuSans-6c" transform="translate(217.871094 0)"/>
     <use xlink:href="#DejaVuSans-5f" transform="translate(245.654297 0)"/>
     <use xlink:href="#DejaVuSans-73" transform="translate(295.654297 0)"/>
     <use xlink:href="#DejaVuSans-74" transform="translate(347.753906 0)"/>
     <use xlink:href="#DejaVuSans-72" transform="translate(386.962891 0)"/>
     <use xlink:href="#DejaVuSans-65" transform="translate(425.826172 0)"/>
     <use xlink:href="#DejaVuSans-61" transform="translate(487.349609 0)"/>
     <use xlink:href="#DejaVuSans-6d" transform="translate(548.628906 0)"/>
    </g>
   </g>
   <g id="text_5">
    <!-- yaml_stream -->
    <g transform="translate(76.5 102.098437) scale(0.1 -0.1)">
     <use xlink:href="#DejaVuSans-79"/>
     <use xlink:href="#DejaVuSans-61" transform="translate(59.179688 0)"/>
     <use xlink:href="#DejaVuSans-6d" transform="translate(120.458984 0)"/>
     <use xlink:href="#DejaVuSans-6c" transform="translate(217.871094 0)"/>
     <use xlink:href="#DejaVuSans-5f" transform="translate(245.654297 0)"/>
     <use xlink:href="#DejaVuSans-73" transform="translate(295.654297 0)"/>
     <use xlink:href="#DejaVuSans-74" transform="translate(347.753906 0)"/>
     <use xlink:href="#DejaVuSans-72" transform="translate(386.962891 0)"/>
     <use xlink:href="#DejaVuSans-65" transform="translate(425.826172 0)"/>
     <use xlink:href="#DejaVuSans-61" transform="translate(487.349609 0)"/>
     <use xlink:href="#DejaVuSans-6d" transform="translate(548.628906 0)"/>
    </g>
   </g>
   <g id="text_6">
    <!-- yaml_stream -->
    <g transform="translate(76.5 174.098437) scale(0.1 -0.1)">
     <use xlink:href="#DejaVuSans-79"/>
     <use xlink:href="#DejaVuSans-61" transform="translate(59.179688 0)"/>
     <use xlink:href="#DejaVuSans-6d" transform="translate(120.458984 0)"/>
     <use xlink:href="#DejaVuSans-6c" transform="translate(217.871094 0)"/>
     <use xlink:href="#DejaVuSans-5f" transform="translate(245.654297 0)"/>
     <use xlink:href="#DejaVuSans-73" transform="translate(295.654297 0)"/>
     <use xlink:href="#DejaVuSans-74" transform="translate(347.753906 0)"/>
     <use xlink:href="#DejaVuSans-72" transform="translate(386.962891 0)"/>
     <use xlink:href="#DejaVuSans-65" transform="translate(425.826172 0)"/>
     <use xlink:href="#DejaVuSans-61" transform="translate(487.349609 0)"/>
     <use xlink:href="#DejaVuSans-6d" transform="translate(548.628906 0)"/>
    </g>
   </g>
   <g id="text_7">
    <!-- yaml_stream -->
    <g transform="translate(148.5 246.098437) scale(0.1 -0.1)">
     <use xlink:href="#DejaVuSans-79"/>
     <use xlink:href="#DejaVuSans-61" transform="translate(59.179688 0)"/>
     <use xlink:href="#DejaVuSans-6d" transform="translate(120.458984 0)"/>
     <use xlink:href="#DejaVuSans-6c" transform="translate(217.871094 0)"/>
     <use xlink:href="#DejaVuSans-5f" transform="translate(245.654297 0)"/>
     <use xlink:href="#DejaVuSans-73" transform="translate(295.654297 0)"/>
     <use xlink:href="#DejaVuSans-74" transform="translate(347.753906 0)"/>
     <use xlink:href="#DejaVuSans-72" transform="translate(386.962891 0)"/>
     <use xlink:href="#DejaVuSans-65" transform="translate(425.826172 0)"/>
     <use xlink:href="#DejaVuSans-61" transform="translate(487.349609 0)"/>
     <use xlink:href="#DejaVuSans-6d" transform="translate(548.628906 0)"/>
    </g>
   </g>
   <g id="text_8">
    <!-- yaml_stream -->
    <g transform="translate(148.5 318.098437) scale(0.1 -0.1)">
     <use xlink:href="#DejaVuSans-79"/>
     <use xlink:href="#DejaVuSans-61" transform="translate(59.179688 0)"/>
     <use xlink:href="#DejaVuSans-6d" transform="translate(120.458984 0)"/>
     <use xlink:href="#DejaVuSans-6c" transform="translate(217.871094 0)"/>
     <use xlink:href="#DejaVuSans-5f" transform="translate(245.654297 0)"/>
     <use xlink:href="#DejaVuSans-73" transform="translate(295.654297 0)"/>
     <use xlink:href="#DejaVuSans-74" transform="translate(347.753906 0)"/>
     <use xlink:href="#DejaVuSans-72" transform="translate(386.962891 0)"/>
     <use xlink:href="#DejaVuSans-65" transform="translate(425.826172 0)"/>
     <use xlink:href="#DejaVuSans-61" transform="translate(487.349609 0)"/>
     <use xlink:href="#DejaVuSans-6d" transform="translate(548.628906 0)"/>
    </g>
   </g>
   <g id="text_9">
    <!-- yaml_stream -->
    <g transform="translate(112.5 354.098437) scale(0.1 -0.1)">
     <use xlink:href="#DejaVuSans-79"/>
     <use xlink:href="#DejaVuSans-61" transform="translate(59.179688 0)"/>
     <use xlink:href="#DejaVuSans-6d" transform="translate(120.458984 0)"/>
     <use xlink:href="#DejaVuSans-6c" transform="translate(217.871094 0)"/>
     <use xlink:href="#DejaVuSans-5f" transform="translate(245.654297 0)"/>
     <use xlink:href="#DejaVuSans-73" transform="translate(295.654297 0)"/>
     <use xlink:href="#DejaVuSans-74" transform="translate(347.753906 0)"/>
     <use xlink:href="#DejaVuSans-72" transform="translate(386.962891 0)"/>
     <use xlink:href="#DejaVuSans-65" transform="translate(425.826172 0)"/>
     <use xlink:href="#DejaVuSans-61" transform="translate(487.349609 0)"/>
     <use xlink:href="#DejaVuSans-6d" transform="translate(548.628906 0)"/>
    </g>
   </g>
   <g id="text_10">
    <!-- 'foo' -->
    <g transform="translate(61.372656 74.759375) scale(0.1 -0.1)">
     <defs>
      <path id="DejaVuSans-27" d="M 1147 4666 
L 1147 2931 
L 616 2931 
L 616 4666 
L 1147 4666 
z
" transform="scale(0.015625)"/>
      <path id="DejaVuSans-66" d="M 2375 4863 
L 2375 4384 
L 1825 4384 
Q 1516 4384 1395 4259 
Q 1275 4134 1275 3809 
L 1275 3500 
L 2222 3500 
L 2222 3053 
L 1275 3053 
L 1275 0 
L 697 0 
L 697 3053 
L 147 3053 
L 147 3500 
L 697 3500 
L 697 3744 
Q 697 4328 969 4595 
Q 1241 4863 1831 4863 
L 2375 4863 
z
" transform="scale(0.015625)"/>
      <path id="DejaVuSans-6f" d="M 1959 3097 
Q 1497 3097 1228 2736 
Q 959 2375 959 1747 
Q 959 1119 1226 758 
Q 1494 397 1959 397 
Q 2419 397 2687 759 
Q 2956 1122 2956 1747 
Q 2956 2369 2687 2733 
Q 2419 3097 1959 3097 
z
M 1959 3584 
Q 2709 3584 3137 3096 
Q 3566 2609 3566 1747 
Q 3566 888 3137 398 
Q 2709 -91 1959 -91 
Q 1206 -91 779 398 
Q 353 888 353 1747 
Q 353 2609 779 3096 
Q 1206 3584 1959 3584 
z
" transform="scale(0.015625)"/>
     </defs>
     <use xlink:href="#DejaVuSans-27"/>
     <use xlink:href="#DejaVuSans-66" transform="translate(27.490234 0)"/>
     <use xlink:href="#DejaVuSans-6f" transform="translate(62.695312 0)"/>
     <use xlink:href="#DejaVuSans-6f" transform="translate(123.876953 0)"/>
     <use xlink:href="#DejaVuSans-27" transform="translate(185.058594 0)"/>
    </g>
   </g>
   <g id="text_11">
    <!-- '' -->
    <g transform="translate(69.251563 146.759375) scale(0.1 -0.1)">
     <use xlink:href="#DejaVuSans-27"/>
     <use xlink:href="#DejaVuSans-27" transform="translate(27.490234 0)"/>
    </g>
   </g>
   <g id="text_12">
    <!-- 'bar' -->
    <g transform="translate(132.957812 218.759375) scale(0.1 -0.1)">
     <defs>
      <path id="DejaVuSans-62" d="M 3116 1747 
Q 3116 2381 2855 2742 
Q 2594 3103 2138 3103 
Q 1681 3103 1420 2742 
Q 1159 2381 1159 1747 
Q 1159 1113 1420 752 
Q 1681 391 2138 391 
Q 2594 391 2855 752 
Q 3116 1113 3116 1747 
z
M 1159 2969 
Q 1341 3281 1617 3432 
Q 1894 3584 2278 3584 
Q 2916 3584 3314 3078 
Q 3713 2572 3713 1747 
Q 3713 922 3314 415 
Q 2916 -91 2278 -91 
Q 1894 -91 1617 61 
Q 1341 213 1159 525 
L 1159 0 
L 581 0 
L 581 4863 
L 1159 4863 
L 1159 2969 
z
" transform="scale(0.015625)"/>
     </defs>
     <use xlink:href="#DejaVuSans-27"/>
     <use xlink:href="#DejaVuSans-62" transform="translate(27.490234 0)"/>
     <use xlink:href="#DejaVuSans-61" transform="translate(90.966797 0)"/>
     <use xlink:href="#DejaVuSans-72" transform="translate(152.246094 0)"/>
     <use xlink:href="#DejaVuSans-27" transform="translate(193.359375 0)"/>
    </g>
   </g>
   <g id="text_13">
    <!-- '' -->
    <g transform="translate(141.251563 290.759375) scale(0.1 -0.1)">
     <use xlink:href="#DejaVuSans-27"/>
     <use xlink:href="#DejaVuSans-27" transform="translate(27.490234 0)"/>
    </g>
   </g>
  </g>
 </g>
 <defs>
  <clipPath id="p0d411bed96">
   <rect x="0" y="0" width="216" height="360"/>
  </clipPath>
 </defs>
</svg>
